<svg xmlns="http://www.w3.org/2000/svg" xmlns:xlink="http://www.w3.org/1999/xlink" width="367.935" height="367.953" viewBox="0 0 367.935 367.953">
  <defs>
    <clipPath id="clip-path">
      <rect id="Rectangle_14" data-name="Rectangle 14" width="152.225" height="195.196" transform="translate(0 0)" fill="#3971a4"/>
    </clipPath>
    <clipPath id="clip-path-2">
      <rect id="Rectangle_12" data-name="Rectangle 12" width="367.935" height="367.953" fill="none"/>
    </clipPath>
  </defs>
  <g id="Group_161" data-name="Group 161" transform="translate(-125 -918.047)">
    <g id="Group_133" data-name="Group 133" transform="translate(242.426 1005.797)">
      <g id="Group_16" data-name="Group 16" transform="translate(0 0)" clip-path="url(#clip-path)">
        <path id="Path_41" data-name="Path 41" d="M113.9,40.8a19.487,19.487,0,0,1-2.189-1.121c-3.774-2.551-7.486-5.189-11.286-7.7-2.168-1.432-4.445-2.7-6.7-3.992a21.308,21.308,0,0,0-7.3-2.088c-4.691-.774-9.384-1.538-14.066-2.368a13.6,13.6,0,0,1-6.641-3.321c-1.2-1.053-2.4-2.111-3.658-3.093a12.827,12.827,0,0,0-6.612-2.946,12.89,12.89,0,0,0-5.413.742c-1.924.638-3.824,1.342-5.862,2.062.1-.214.125-.388.226-.475A8.488,8.488,0,0,1,45.5,15.63a20.287,20.287,0,0,1,8.428-3.082,11.367,11.367,0,0,1,5.994,1.037,20.066,20.066,0,0,1,4.639,3.035,8.154,8.154,0,0,1,.714.621c2.929,3.172,6.662,4.628,10.865,5.206,4.3.593,8.584,1.328,12.88,1.971a17.222,17.222,0,0,1,7.3,2.786c3.4,2.329,6.925,4.516,10.063,7.158,2.485,2.092,5.178,3.942,7.516,6.205Z" transform="translate(38.185 10.691)" fill="#3971a4"/>
        <path id="Path_42" data-name="Path 42" d="M115.065,42.09l-.9-.447c-.224-.112-.446-.214-.669-.319a10.818,10.818,0,0,1-1.594-.843c-1.531-1.037-3.058-2.088-4.583-3.14-2.221-1.533-4.443-3.067-6.7-4.551-1.909-1.26-3.94-2.418-5.907-3.537l-.761-.436a20.066,20.066,0,0,0-6.9-1.982l-1.749-.285c-4.177-.69-8.359-1.378-12.526-2.116a14.24,14.24,0,0,1-6.938-3.464l-.2-.173c-1.113-.975-2.262-1.98-3.434-2.9a12.09,12.09,0,0,0-6.295-2.817,12.23,12.23,0,0,0-5.155.712c-1.3.433-2.6.895-3.934,1.372l-3.291,1.169.669-1.486a1.163,1.163,0,0,1,.324-.528,8.776,8.776,0,0,1,1.188-.936,20.914,20.914,0,0,1,8.687-3.172,12.166,12.166,0,0,1,6.319,1.091,20.578,20.578,0,0,1,4.783,3.129l.188.151a5.218,5.218,0,0,1,.582.524c2.573,2.784,5.907,4.378,10.492,5.008,2.655.365,5.3.785,7.947,1.2,1.646.263,3.295.524,4.941.772a17.887,17.887,0,0,1,7.555,2.888c.822.561,1.652,1.117,2.48,1.672a85.594,85.594,0,0,1,7.632,5.519c.915.768,1.857,1.5,2.8,2.239a59.541,59.541,0,0,1,4.753,4l.19.185ZM54.931,13.79a11.023,11.023,0,0,1,1.115.056,13.318,13.318,0,0,1,6.934,3.075c1.2.938,2.359,1.954,3.483,2.939l.2.173A13.012,13.012,0,0,0,73,23.212c4.167.736,8.344,1.425,12.515,2.111l1.745.289a21.24,21.24,0,0,1,7.307,2.129l.764.433c1.982,1.13,4.033,2.3,5.976,3.58,2.195,1.449,4.356,2.939,6.522,4.43-.436-.349-.873-.7-1.3-1.063a85.065,85.065,0,0,0-7.525-5.439c-.833-.557-1.667-1.115-2.491-1.682a16.731,16.731,0,0,0-7.039-2.685c-1.654-.246-3.306-.509-4.952-.77-2.636-.418-5.277-.833-7.919-1.2-4.822-.666-8.5-2.433-11.241-5.4a3.713,3.713,0,0,0-.446-.4l-.209-.172a19.433,19.433,0,0,0-4.5-2.946,10.555,10.555,0,0,0-5.67-.984,18.012,18.012,0,0,0-5.94,1.771q.887-.313,1.773-.606a14.323,14.323,0,0,1,4.555-.826" transform="translate(37.643 10.405)" fill="#3971a4"/>
        <path id="Path_43" data-name="Path 43" d="M.333,43.661a31.987,31.987,0,0,1,9.44-3.468c4.689-1.076,9.366-2.208,14.077-3.175,2.428-.5,4.915-.736,7.384-1.022a22.8,22.8,0,0,0,12.118-4.742C46,29.1,48.6,26.9,51.237,24.742c1.615-1.324,3.22-2.664,4.9-3.9a12.046,12.046,0,0,1,6.651-2.37,10.387,10.387,0,0,1,1.932.168,3.429,3.429,0,0,1,.776.377,8.93,8.93,0,0,1-1.115.548c-.617.2-1.251.362-1.885.505A14.421,14.421,0,0,0,56.355,23c-2.092,1.736-4.095,3.58-6.19,5.312s-4.26,3.446-6.444,5.1a21.261,21.261,0,0,1-10.371,4c-3.073.393-6.172.626-9.22,1.158A176.145,176.145,0,0,0,4.1,43.242,10,10,0,0,1,.333,43.9Z" transform="translate(0.289 15.857)" fill="#3971a4"/>
        <path id="Path_44" data-name="Path 44" d="M1.091,44.83c-.175,0-.349-.007-.528-.024L0,44.756V43.6l.3-.181a32.838,32.838,0,0,1,9.619-3.543l3.531-.817c3.455-.8,7.026-1.633,10.564-2.361,2.068-.423,4.2-.664,6.259-.895l1.173-.134a22.121,22.121,0,0,0,11.8-4.607c1.439-1.169,2.864-2.353,4.288-3.535q1.8-1.493,3.6-2.976l.7-.574C53.2,22.857,54.6,21.7,56.052,20.627a12.681,12.681,0,0,1,6.988-2.489,8.3,8.3,0,0,1,1.8.14l.252.034a1.879,1.879,0,0,1,.658.268c.088.052.19.108.306.168l1.1.552-1.5.768a4.621,4.621,0,0,1-.8.373c-.64.207-1.288.371-1.937.522a13.785,13.785,0,0,0-5.883,2.8c-1.018.845-2.016,1.715-3.009,2.584-1.057.919-2.109,1.838-3.188,2.728-2.088,1.732-4.264,3.455-6.464,5.114a21.693,21.693,0,0,1-10.665,4.124c-1.076.138-2.152.254-3.231.373-1.963.213-3.994.436-5.955.778A177.029,177.029,0,0,0,4.564,44.126l-.282.084a11.022,11.022,0,0,1-3.192.621M63.316,19.37c-.073,0-.14,0-.209.007a11.448,11.448,0,0,0-6.319,2.249c-1.419,1.052-2.814,2.2-4.165,3.31l-.7.576c-1.2.983-2.4,1.976-3.591,2.97-1.43,1.184-2.858,2.372-4.3,3.544A23.338,23.338,0,0,1,31.593,36.9l-1.178.136c-2.034.227-4.132.466-6.147.88-3.524.723-7.089,1.549-10.535,2.351l-3.533.82a38.426,38.426,0,0,0-6.511,2l.242-.073.276-.082a178.465,178.465,0,0,1,20.109-4.695c2-.349,4.05-.574,6.032-.789,1.07-.117,2.142-.237,3.213-.371A20.554,20.554,0,0,0,43.634,33.2c2.18-1.65,4.341-3.36,6.42-5.081,1.072-.884,2.118-1.8,3.16-2.707,1-.878,2.01-1.755,3.032-2.6a15.123,15.123,0,0,1,6.4-3.058c.446-.1.893-.211,1.333-.337a5.882,5.882,0,0,0-.664-.043" transform="translate(0.002 15.569)" fill="#3971a4"/>
        <path id="Path_45" data-name="Path 45" d="M22.592,143.676a11.724,11.724,0,0,1-.323-1.184c-.729-4.279-1.551-8.545-2.133-12.843-.513-3.792-.841-7.618-1.091-11.439A27.647,27.647,0,0,1,20.7,106.778c1.516-4.115,3.05-8.228,4.736-12.278A146.8,146.8,0,0,0,34,66.437c.375-1.9.919-3.772,1.41-5.65a5.46,5.46,0,0,1,.475-1.137c.063-.121.259-.175.4-.261a1.26,1.26,0,0,1,.1.41c-.274,2.044-.539,4.091-.845,6.131a103.057,103.057,0,0,1-4.316,19.194c-1.469,4.154-3.082,8.258-4.635,12.382-1.339,3.552-2.724,7.089-4.02,10.656a26.842,26.842,0,0,0-1.521,10.628c.255,4.906.694,9.8,1.065,14.7.233,3.1.487,6.192.725,9.289.022.282,0,.567,0,.85l-.239.045" transform="translate(16.415 51.241)" fill="#3971a4"/>
        <path id="Path_46" data-name="Path 46" d="M22.677,144.788l-.392-.5-.108-.347a6.773,6.773,0,0,1-.231-.9c-.209-1.223-.427-2.444-.64-3.666-.533-3.006-1.081-6.114-1.5-9.2-.446-3.311-.8-6.96-1.1-11.482A28.278,28.278,0,0,1,20.41,107c1.452-3.949,3.019-8.155,4.743-12.3a146.7,146.7,0,0,0,8.523-27.946c.3-1.5.7-2.991,1.085-4.432L35.1,61.07a6.235,6.235,0,0,1,.522-1.266,1.109,1.109,0,0,1,.53-.455l.731-.47.285.8a1.337,1.337,0,0,1,.112.649l-.091.7c-.242,1.812-.485,3.627-.751,5.437a104.877,104.877,0,0,1-4.346,19.309c-1.033,2.912-2.146,5.847-3.233,8.681q-.7,1.857-1.4,3.71l-1.3,3.42c-.921,2.405-1.842,4.811-2.718,7.231A26.254,26.254,0,0,0,21.947,119.2c.188,3.619.479,7.3.764,10.857l.3,3.832q.2,2.635.408,5.267l.315,4.018c.013.211.013.433.009.649l-.006.764Zm12.778-80.22c-.209.807-.4,1.62-.557,2.43A148.64,148.64,0,0,1,26.3,95.18c-1.71,4.124-3.27,8.314-4.723,12.254a26.923,26.923,0,0,0-1.618,11.176c.295,4.492.64,8.113,1.085,11.4.246,1.82.537,3.654.846,5.471-.037-.5-.076-1-.116-1.5l-.3-3.822c-.282-3.569-.576-7.257-.766-10.9a27.473,27.473,0,0,1,1.561-10.868c.878-2.428,1.8-4.84,2.724-7.253l1.3-3.41c.466-1.242.94-2.48,1.41-3.718,1.081-2.829,2.2-5.754,3.218-8.651A103.542,103.542,0,0,0,35.2,66.277c.088-.569.17-1.141.252-1.71" transform="translate(16.127 50.8)" fill="#3971a4"/>
        <path id="Path_47" data-name="Path 47" d="M43.089,90.579a9.985,9.985,0,0,1-.934-.759c-2.441-2.515-4.926-4.991-7.281-7.585a48.451,48.451,0,0,1-4.479-5.56,25.061,25.061,0,0,1-4.281-14.253A14.028,14.028,0,0,1,30.505,52.05c1.594-1.546,3.365-2.912,5.053-4.365.7-.6,1.415-1.2,2.088-1.833a13.511,13.511,0,0,0,4.216-13.46c-.408-1.881-.88-3.75-1.285-5.631a10.225,10.225,0,0,1-.1-1.536c.1-.056.194-.114.291-.172a2.044,2.044,0,0,0,.138.384,24.588,24.588,0,0,1,3.533,9.673,14.121,14.121,0,0,1-3.365,10.736,27.957,27.957,0,0,1-4.527,4.229c-1.264,1.007-2.538,2.006-3.763,3.06a12.628,12.628,0,0,0-4.419,11.4A26.205,26.205,0,0,0,34.288,78.7c2.133,2.657,4.266,5.314,6.366,8,.847,1.083,1.6,2.237,2.394,3.364a2.659,2.659,0,0,1,.192.386l-.151.131" transform="translate(22.578 21.556)" fill="#3971a4"/>
        <path id="Path_48" data-name="Path 48" d="M43.4,91.817l-.7-.548A5.86,5.86,0,0,1,42,90.676l-1.982-2.034c-1.76-1.8-3.586-3.664-5.316-5.566a49.617,49.617,0,0,1-4.531-5.635,25.618,25.618,0,0,1-4.385-14.6,14.584,14.584,0,0,1,4.579-10.814c1.1-1.068,2.3-2.064,3.455-3.026.546-.451,1.091-.9,1.628-1.363l.4-.345c.561-.483,1.124-.962,1.661-1.471a12.986,12.986,0,0,0,4.037-12.877c-.19-.867-.393-1.734-.6-2.6-.237-1.009-.474-2.016-.688-3.032a5.4,5.4,0,0,1-.1-1.149c-.006-.157-.011-.317-.021-.474l-.024-.379,1.255-.75.321.874a25.53,25.53,0,0,1,3.649,10.027A14.638,14.638,0,0,1,41.845,46.66a29.073,29.073,0,0,1-4.628,4.324l-.494.4c-1.094.869-2.191,1.74-3.252,2.65a11.939,11.939,0,0,0-4.2,10.874,25.364,25.364,0,0,0,5.795,13.833l.207.263c2.066,2.573,4.13,5.142,6.159,7.74.621.794,1.2,1.628,1.769,2.461l.645.93a1.942,1.942,0,0,1,.2.377l.185.412-.431.544ZM41.7,28.081c.145.662.3,1.32.455,1.982.2.873.408,1.743.6,2.62a14.148,14.148,0,0,1-4.4,14.042c-.552.522-1.134,1.016-1.71,1.512l-.4.341c-.537.464-1.089.923-1.637,1.378-1.139.947-2.316,1.926-3.386,2.963a13.4,13.4,0,0,0-4.2,9.929,24.448,24.448,0,0,0,4.173,13.906,48.49,48.49,0,0,0,4.425,5.489c1.322,1.452,2.707,2.892,4.08,4.3-1.784-2.267-3.591-4.518-5.4-6.77l-.209-.261a26.862,26.862,0,0,1-6.056-14.493,13.241,13.241,0,0,1,4.632-11.929c1.07-.923,2.176-1.8,3.28-2.681l.494-.393a27.532,27.532,0,0,0,4.434-4.132A13.48,13.48,0,0,0,44.109,35.6a21.769,21.769,0,0,0-2.409-7.52" transform="translate(22.291 21.132)" fill="#3971a4"/>
        <path id="Path_49" data-name="Path 49" d="M41.429,43.12a34.462,34.462,0,0,0,4.053,12c.929,1.71,1.889,3.4,2.845,5.1a22.278,22.278,0,0,1,2.694,7.2,17.487,17.487,0,0,1-1.035,9.265A64.3,64.3,0,0,1,47.4,82.626Q42.032,93.4,36.557,104.113c-1.007,1.976-2.118,3.9-3.187,5.845a3.739,3.739,0,0,1-.347.462c-.048-.03-.1-.06-.145-.091.106-.28.2-.565.319-.841,3.668-8.864,7.557-17.625,11.94-26.165A49.714,49.714,0,0,0,48.783,74.7a15.678,15.678,0,0,0-1.07-11.857c-1.2-2.39-2.536-4.71-3.783-7.076a27.312,27.312,0,0,1-3.047-8.939,15.906,15.906,0,0,1-.062-2.7.962.962,0,0,1,.608-1.011" transform="translate(28.426 37.175)" fill="#3971a4"/>
        <path id="Path_50" data-name="Path 50" d="M33.464,111.615l-.912-.546.03-.571c.116-.326.213-.6.319-.861,4.236-10.231,8.04-18.558,11.968-26.217a49.147,49.147,0,0,0,3.6-8.515,15.124,15.124,0,0,0-1.027-11.4c-.716-1.425-1.482-2.825-2.247-4.225-.515-.945-1.033-1.889-1.533-2.842A27.855,27.855,0,0,1,40.547,47.3a16.8,16.8,0,0,1-.062-2.812,1.517,1.517,0,0,1,1.037-1.577l.707-.227.1.736a33.757,33.757,0,0,0,3.983,11.788c.77,1.415,1.561,2.819,2.351,4.223l.494.869a22.993,22.993,0,0,1,2.761,7.4,17.943,17.943,0,0,1-1.067,9.589c-.779,2.066-1.658,4.085-2.607,6q-5.378,10.776-10.848,21.493c-.733,1.432-1.512,2.838-2.3,4.242l-.9,1.622a2.941,2.941,0,0,1-.295.416Zm8.32-64.437a26.772,26.772,0,0,0,2.976,8.681c.5.943,1.012,1.885,1.525,2.821.77,1.413,1.546,2.828,2.264,4.264a16.335,16.335,0,0,1,1.115,12.313,51.206,51.206,0,0,1-3.688,8.728c-2.676,5.208-5.286,10.727-8.019,16.949q4.615-9.087,9.172-18.205a63.636,63.636,0,0,0,2.56-5.884A16.738,16.738,0,0,0,50.694,67.9a21.88,21.88,0,0,0-2.625-7l-.49-.869c-.794-1.408-1.589-2.821-2.359-4.24a37.143,37.143,0,0,1-3.436-8.618" transform="translate(28.144 36.796)" fill="#3971a4"/>
        <path id="Path_51" data-name="Path 51" d="M45.644,68.327c.063-.433.1-.874.194-1.3.75-3.27,1.466-6.55,2.277-9.806,1.318-5.284,2.657-10.566,4.074-15.824.942-3.5.822-7.046.778-10.607-.034-2.709.054-5.42.158-8.129a8.867,8.867,0,0,1,.5-1.984,2.55,2.55,0,0,1,.3-.479,2.594,2.594,0,0,1,.149.461c.3,3.565.569,7.132.9,10.7a31.637,31.637,0,0,1-1.208,12.7C51.728,50.446,49.891,56.9,47.913,63.3c-.49,1.59-1.2,3.114-1.814,4.665a2.975,2.975,0,0,1-.252.423c-.067-.022-.136-.043-.2-.063" transform="translate(39.463 17.358)" fill="#3971a4"/>
        <path id="Path_52" data-name="Path 52" d="M46.522,69.686l-.727-.1-.522-.147L45.4,68.5c.039-.317.082-.636.149-.949l.518-2.273c.569-2.519,1.139-5.04,1.764-7.544C49.017,52.991,50.428,47.4,51.911,41.9a34.6,34.6,0,0,0,.766-9.7l-.011-.733c-.034-2.573.039-5.122.16-8.159a5.892,5.892,0,0,1,.358-1.607c.054-.173.112-.345.16-.52a1.431,1.431,0,0,1,.248-.459l.833-1.288.474,1.425a1.616,1.616,0,0,1,.112.418l.291,3.576c.194,2.372.388,4.743.606,7.113a32.169,32.169,0,0,1-1.236,12.953c-1.173,3.675-2.3,7.436-3.382,11.075-.809,2.722-1.622,5.448-2.465,8.165-.354,1.145-.82,2.262-1.27,3.345-.19.453-.379.906-.557,1.361a1.994,1.994,0,0,1-.224.4Zm7.5-45.249c-.091,2.554-.145,4.775-.116,7.011l.009.731a36.454,36.454,0,0,1-.805,10.044C51.629,47.712,50.22,53.3,49.038,58.038c-.436,1.747-.843,3.5-1.246,5.258q1.177-3.829,2.312-7.661c1.089-3.643,2.213-7.412,3.386-11.1a31.094,31.094,0,0,0,1.188-12.463c-.224-2.372-.418-4.751-.612-7.128Z" transform="translate(39.142 16.694)" fill="#3971a4"/>
        <path id="Path_53" data-name="Path 53" d="M49,1.11c-.563.132-1.122.289-1.691.39A23.46,23.46,0,0,0,37.291,5.641a10.19,10.19,0,0,0-4.5,8.776,9.909,9.909,0,0,0,3.619,7.777c2.068,1.7,4.244,3.278,6.349,4.935a20.07,20.07,0,0,1,1.581,1.507,2.814,2.814,0,0,1,.282.477,5.175,5.175,0,0,1-.792-.19,28.992,28.992,0,0,1-2.676-1.234c-1.781-1.016-3.544-2.066-5.269-3.17-6.379-4.081-7.313-14.18-.7-19.518A21.279,21.279,0,0,1,46.1.372a8.971,8.971,0,0,1,2.118.076,2.623,2.623,0,0,1,.82.427c-.011.078-.024.157-.035.235" transform="translate(26.497 0.186)" fill="#3971a4"/>
        <path id="Path_54" data-name="Path 54" d="M46.144,30.334l-1.7-.393a2.657,2.657,0,0,1-.582-.162l-.658-.283a20.618,20.618,0,0,1-2.07-.979c-1.967-1.122-3.7-2.165-5.3-3.185a12.347,12.347,0,0,1-5.5-9.776A12.736,12.736,0,0,1,35.093,4.808,21.9,21.9,0,0,1,46.31.046a8.92,8.92,0,0,1,2.267.076,1.892,1.892,0,0,1,.833.364,2.273,2.273,0,0,0,.209.131l.4.216-.158.843L49.429,2l-.528.127c-.4.1-.791.2-1.2.27A22.7,22.7,0,0,0,37.946,6.43,9.616,9.616,0,0,0,33.7,14.69,9.3,9.3,0,0,0,37.094,22c1.24,1.025,2.519,2,3.8,2.972.854.649,1.7,1.3,2.54,1.958a12.957,12.957,0,0,1,1.231,1.149l.4.4a1.45,1.45,0,0,1,.27.4Zm.882-29.089a4.547,4.547,0,0,0-.561.032,20.741,20.741,0,0,0-10.6,4.5,11.524,11.524,0,0,0-4.292,9.714,11.1,11.1,0,0,0,4.932,8.8c1.576,1.011,3.291,2.042,5.243,3.155.3.164.6.315.906.461-.833-.658-1.671-1.3-2.513-1.939-1.294-.983-2.588-1.967-3.839-3a10.5,10.5,0,0,1-3.841-8.239,10.792,10.792,0,0,1,4.747-9.289,23.8,23.8,0,0,1,9.925-4.186ZM49.29,1.4l-.078-.015Z" transform="translate(26.209 -0.103)" fill="#3971a4"/>
        <path id="Path_55" data-name="Path 55" d="M35.026,8.088a2.291,2.291,0,0,1,.787.283A8.457,8.457,0,0,1,37.1,9.749a5.7,5.7,0,0,0,4.99,2.411c3.53.054,7.059.211,10.589.345a11.6,11.6,0,0,1,1.484.241c.006.076.011.155.019.233a15.288,15.288,0,0,1-1.9.337q-4.906.257-9.815.442a12.426,12.426,0,0,1-2.185-.125c-2.812-.39-4.3-2.237-5.172-4.74-.069-.2-.11-.406-.164-.608.03-.067.058-.132.088-.2" transform="translate(30.207 6.889)" fill="#3971a4"/>
        <path id="Path_56" data-name="Path 56" d="M42.364,14.741a14.066,14.066,0,0,1-1.87-.136c-2.743-.38-4.6-2.066-5.674-5.154a5.047,5.047,0,0,1-.136-.487l-.1-.377.4-.912.537.179a1.621,1.621,0,0,0,.209.056,1.727,1.727,0,0,1,.794.354,8.782,8.782,0,0,1,1.376,1.488A5.06,5.06,0,0,0,42.4,11.9c2.873.043,5.743.155,8.61.265L53,12.24a7.05,7.05,0,0,1,1.115.162c.151.032.3.062.451.086l.485.082.082,1.277-.543.1c-.188.034-.379.075-.567.117a8.825,8.825,0,0,1-1.41.229q-4.914.257-9.828.44c-.14.006-.276.007-.421.007M36.245,9.7a5.383,5.383,0,0,0,4.425,3.675,11.844,11.844,0,0,0,2.068.119q2.537-.1,5.073-.209c-1.807-.065-3.619-.121-5.431-.147a6.27,6.27,0,0,1-5.489-2.676,5.989,5.989,0,0,0-.645-.763" transform="translate(29.903 6.533)" fill="#3971a4"/>
      </g>
    </g>
    <g id="Group_134" data-name="Group 134" transform="translate(125 918.047)">
      <text id="W" transform="translate(56.21 231.347) rotate(-105.797)" fill="#3770a9" font-size="21" font-family="AvenirLTStd-Roman, Avenir LT Std"><tspan x="0" y="0">W</tspan></text>
      <text id="H" transform="translate(47.472 196.672) rotate(-92.011)" fill="#3770a9" font-size="20" font-family="AvenirLTStd-Roman, Avenir LT Std"><tspan x="0" y="0">H</tspan></text>
      <text id="E" transform="translate(49.072 166.431) rotate(-79.775)" fill="#3770a9" font-size="21" font-family="AvenirLTStd-Roman, Avenir LT Std"><tspan x="0" y="0">E</tspan></text>
      <text id="R" transform="matrix(0.373, -0.928, 0.928, 0.373, 54.399, 139.408)" fill="#3770a9" font-size="20" font-family="AvenirLTStd-Roman, Avenir LT Std"><tspan x="0" y="0">R</tspan></text>
      <text id="E-2" data-name="E" transform="matrix(0.551, -0.834, 0.834, 0.551, 67.022, 114.567)" fill="#3770a9" font-size="21" font-family="AvenirLTStd-Roman, Avenir LT Std"><tspan x="0" y="0">E</tspan></text>
      <text id="_" data-name=" " transform="matrix(0.689, -0.725, 0.725, 0.689, 81.984, 91.189)" fill="#3770a9" font-size="19" font-family="AvenirLTStd-Roman, Avenir LT Std"><tspan x="0" y="0"> </tspan></text>
      <text id="T" transform="translate(98.147 78.462) rotate(-36.438)" fill="#3770a9" font-size="21" font-family="AvenirLTStd-Roman, Avenir LT Std"><tspan x="0" y="0">T</tspan></text>
      <text id="H-2" data-name="H" transform="translate(120.174 62.633) rotate(-24.287)" fill="#3770a9" font-size="20" font-family="AvenirLTStd-Roman, Avenir LT Std"><tspan x="0" y="0">H</tspan></text>
      <text id="E-3" data-name="E" transform="translate(148.794 52.633) rotate(-12.215)" fill="#3770a9" font-size="21" font-family="AvenirLTStd-Roman, Avenir LT Std"><tspan x="0" y="0">E</tspan></text>
      <text id="_2" data-name=" " transform="translate(175.805 46.356) rotate(-2.147)" fill="#3770a9" font-size="19" font-family="AvenirLTStd-Roman, Avenir LT Std"><tspan x="0" y="0"> </tspan></text>
      <text id="B" transform="translate(196.55 46.538) rotate(8.184)" fill="#3770a9" font-size="19" font-family="AvenirLTStd-Roman, Avenir LT Std"><tspan x="0" y="0">B</tspan></text>
      <text id="O" transform="translate(224.662 51.986) rotate(21.066)" fill="#3770a9" font-size="19" font-family="AvenirLTStd-Roman, Avenir LT Std"><tspan x="0" y="0">O</tspan></text>
      <text id="D" transform="translate(254.916 65.586) rotate(34.366)" fill="#3770a9" font-size="19" font-family="AvenirLTStd-Roman, Avenir LT Std"><tspan x="0" y="0">D</tspan></text>
      <text id="Y" transform="translate(278.835 85.216) rotate(46.585)" fill="#3770a9" font-size="20" font-family="AvenirLTStd-Roman, Avenir LT Std"><tspan x="0" y="0">Y</tspan></text>
      <text id="_3" data-name=" " transform="translate(297.462 105.769) rotate(56.731)" fill="#3770a9" font-size="19" font-family="AvenirLTStd-Roman, Avenir LT Std"><tspan x="0" y="0"> </tspan></text>
      <text id="M" transform="matrix(0.369, 0.93, -0.93, 0.369, 307.302, 123.974)" fill="#3770a9" font-size="20" font-family="AvenirLTStd-Roman, Avenir LT Std"><tspan x="0" y="0">M</tspan></text>
      <text id="E-4" data-name="E" transform="translate(317.145 156.865) rotate(81.229)" fill="#3770a9" font-size="21" font-family="AvenirLTStd-Roman, Avenir LT Std"><tspan x="0" y="0">E</tspan></text>
      <text id="E-5" data-name="E" transform="matrix(-0.049, 0.999, -0.999, -0.049, 319.907, 184.129)" fill="#3770a9" font-size="21" font-family="AvenirLTStd-Roman, Avenir LT Std"><tspan x="0" y="0">E</tspan></text>
      <text id="T-2" data-name="T" transform="translate(317.107 211.352) rotate(104.37)" fill="#3770a9" font-size="21" font-family="AvenirLTStd-Roman, Avenir LT Std"><tspan x="0" y="0">T</tspan></text>
      <text id="S" transform="matrix(-0.433, 0.901, -0.901, -0.433, 309.048, 237.087)" fill="#3770a9" font-size="21" font-family="AvenirLTStd-Roman, Avenir LT Std"><tspan x="0" y="0">S</tspan></text>
      <text id="_4" data-name=" " transform="translate(297.84 261.54) rotate(125.521)" fill="#3770a9" font-size="19" font-family="AvenirLTStd-Roman, Avenir LT Std"><tspan x="0" y="0"> </tspan></text>
      <text id="T-3" data-name="T" transform="matrix(-0.713, 0.701, -0.701, -0.713, 283.581, 276.438)" fill="#3770a9" font-size="21" font-family="AvenirLTStd-Roman, Avenir LT Std"><tspan x="0" y="0">T</tspan></text>
      <text id="H-3" data-name="H" transform="matrix(-0.845, 0.535, -0.535, -0.845, 263.972, 295.218)" fill="#3770a9" font-size="20" font-family="AvenirLTStd-Roman, Avenir LT Std"><tspan x="0" y="0">H</tspan></text>
      <text id="E-6" data-name="E" transform="translate(237.052 309.124) rotate(159.857)" fill="#3770a9" font-size="21" font-family="AvenirLTStd-Roman, Avenir LT Std"><tspan x="0" y="0">E</tspan></text>
      <text id="_5" data-name=" " transform="translate(211.192 319.06) rotate(169.827)" fill="#3770a9" font-size="19" font-family="AvenirLTStd-Roman, Avenir LT Std"><tspan x="0" y="0"> </tspan></text>
      <text id="S-2" data-name="S" transform="translate(190.586 319.753) rotate(179.758)" fill="#3770a9" font-size="21" font-family="AvenirLTStd-Roman, Avenir LT Std"><tspan x="0" y="0">S</tspan></text>
      <text id="O-2" data-name="O" transform="translate(163.64 320.601) rotate(-167.654)" fill="#3770a9" font-size="19" font-family="AvenirLTStd-Roman, Avenir LT Std"><tspan x="0" y="0">O</tspan></text>
      <text id="U" transform="translate(132.136 310.816) rotate(-154.476)" fill="#3770a9" font-size="20" font-family="AvenirLTStd-Roman, Avenir LT Std"><tspan x="0" y="0">U</tspan></text>
      <text id="L" transform="matrix(-0.798, -0.603, 0.603, -0.798, 105.791, 296.376)" fill="#3770a9" font-size="20" font-family="AvenirLTStd-Roman, Avenir LT Std"><tspan x="0" y="0">L</tspan></text>
      <g id="Group_12" data-name="Group 12">
        <g id="Group_11" data-name="Group 11" clip-path="url(#clip-path-2)">
          <path id="Path_6" data-name="Path 6" d="M31.39,117.591a2.423,2.423,0,1,1-1.782,2.927,2.424,2.424,0,0,1,1.782-2.927" transform="translate(36.768 146.289)" fill="#3770a9"/>
          <path id="Path_7" data-name="Path 7" d="M32.615,119.529l.79-3.037a.639.639,0,0,1,1.255.1l.254,2.7,2.272-1.549a.639.639,0,0,1,.835.954l-1.6,1.785,2.393.056a.638.638,0,0,1,.123,1.262l-2.683.6,1.8,2.036a.639.639,0,0,1-.786.983l-2.754-1.5-.79,3.037a.639.639,0,0,1-1.255-.1l-.254-2.7L29.946,125.7a.639.639,0,0,1-.835-.954l1.6-1.785-2.393-.056a.638.638,0,0,1-.123-1.262l2.683-.6-1.8-2.036a.639.639,0,0,1,.786-.983Z" transform="translate(34.468 144.412)" fill="#3770a9"/>
        </g>
      </g>
    </g>
  </g>
</svg>
