<svg xmlns="http://www.w3.org/2000/svg" xmlns:xlink="http://www.w3.org/1999/xlink" width="318" height="152" viewBox="0 0 318 152">
  <defs>
    <clipPath id="clip-path">
      <rect id="Rectangle_14" data-name="Rectangle 14" width="119" height="152" transform="translate(-0.328 -0.347)" fill="#f3efea"/>
    </clipPath>
  </defs>
  <g id="Group_124" data-name="Group 124" transform="translate(-525 -3544)">
    <text id="Where_the_body_" data-name="Where the body " transform="translate(525 3628)" fill="#f2efeb" font-size="17" font-family="DMSerifDisplay-Italic, DM Serif Display" font-style="italic"><tspan x="0" y="0">Where the body </tspan></text>
    <g id="Group_16" data-name="Group 16" transform="translate(640.328 3544.347)">
      <g id="Group_16-2" data-name="Group 16" transform="translate(0 0)" clip-path="url(#clip-path)">
        <path id="Path_41" data-name="Path 41" d="M98.4,34.508a15.155,15.155,0,0,1-1.7-.871c-2.935-1.984-5.822-4.035-8.777-5.986-1.686-1.114-3.457-2.1-5.214-3.1a16.572,16.572,0,0,0-5.678-1.624c-3.648-.6-7.3-1.2-10.939-1.842A10.577,10.577,0,0,1,60.921,18.5c-.934-.819-1.866-1.641-2.845-2.406A9.975,9.975,0,0,0,52.934,13.8a10.025,10.025,0,0,0-4.209.577c-1.5.5-2.974,1.044-4.559,1.6.075-.167.1-.3.175-.37a6.6,6.6,0,0,1,.866-.682,15.777,15.777,0,0,1,6.554-2.4,8.84,8.84,0,0,1,4.662.806A15.605,15.605,0,0,1,60.031,15.7a6.341,6.341,0,0,1,.555.483,13.444,13.444,0,0,0,8.449,4.049c3.345.461,6.676,1.032,10.017,1.533a13.394,13.394,0,0,1,5.674,2.166c2.642,1.811,5.385,3.512,7.826,5.567,1.933,1.627,4.027,3.065,5.845,4.826Z" transform="translate(19.904 5.619)" fill="#f3efea"/>
        <path id="Path_42" data-name="Path 42" d="M99.164,35.435l-.7-.348c-.174-.087-.347-.167-.521-.248a8.414,8.414,0,0,1-1.24-.655c-1.19-.806-2.378-1.624-3.564-2.442-1.727-1.192-3.455-2.385-5.209-3.54-1.485-.98-3.064-1.881-4.594-2.751l-.592-.339a15.605,15.605,0,0,0-5.362-1.541l-1.36-.222c-3.248-.537-6.5-1.072-9.741-1.646a11.075,11.075,0,0,1-5.4-2.694l-.155-.135c-.866-.758-1.759-1.54-2.671-2.252a9.4,9.4,0,0,0-4.9-2.191,9.512,9.512,0,0,0-4.009.554c-1.014.336-2.02.7-3.06,1.067l-2.559.909.521-1.156a.9.9,0,0,1,.252-.41,6.825,6.825,0,0,1,.924-.728A16.265,16.265,0,0,1,51.991,12.2a9.462,9.462,0,0,1,4.914.848,16,16,0,0,1,3.719,2.433l.146.117a4.058,4.058,0,0,1,.452.407A12.84,12.84,0,0,0,69.383,19.9c2.065.284,4.122.61,6.18.934,1.28.2,2.562.407,3.843.6a13.91,13.91,0,0,1,5.876,2.246c.639.436,1.285.869,1.929,1.3a66.565,66.565,0,0,1,5.935,4.292c.712.6,1.444,1.17,2.175,1.742a46.305,46.305,0,0,1,3.7,3.109l.148.144ZM52.4,13.427a8.573,8.573,0,0,1,.867.044,10.357,10.357,0,0,1,5.393,2.391c.929.729,1.834,1.52,2.709,2.285l.155.135a10.12,10.12,0,0,0,4.929,2.472c3.241.573,6.489,1.108,9.733,1.641l1.357.225a16.518,16.518,0,0,1,5.683,1.656l.595.336c1.541.879,3.136,1.786,4.647,2.784,1.707,1.127,3.387,2.285,5.072,3.445-.339-.271-.679-.547-1.011-.827a66.153,66.153,0,0,0-5.852-4.23c-.648-.434-1.3-.867-1.937-1.308a13.012,13.012,0,0,0-5.474-2.088c-1.286-.191-2.571-.4-3.851-.6-2.05-.325-4.1-.648-6.158-.931a13.954,13.954,0,0,1-8.742-4.2,2.888,2.888,0,0,0-.347-.307L60,16.219a15.113,15.113,0,0,0-3.5-2.291,8.208,8.208,0,0,0-4.41-.766,14.008,14.008,0,0,0-4.62,1.378q.689-.244,1.379-.471a11.139,11.139,0,0,1,3.542-.642" transform="translate(19.621 5.47)" fill="#f3efea"/>
        <path id="Path_43" data-name="Path 43" d="M.333,38.059a24.876,24.876,0,0,1,7.342-2.7c3.647-.837,7.284-1.717,10.948-2.469,1.888-.389,3.822-.573,5.742-.795a17.728,17.728,0,0,0,9.424-3.687c2.056-1.673,4.082-3.384,6.132-5.065,1.256-1.03,2.5-2.072,3.809-3.036A9.368,9.368,0,0,1,48.9,18.466a8.078,8.078,0,0,1,1.5.131,2.667,2.667,0,0,1,.6.293,6.944,6.944,0,0,1-.867.426c-.48.155-.973.281-1.466.393A11.215,11.215,0,0,0,43.9,21.989c-1.627,1.35-3.184,2.784-4.814,4.131s-3.313,2.68-5.011,3.964A16.535,16.535,0,0,1,26.01,33.2c-2.39.306-4.8.487-7.17.9A136.987,136.987,0,0,0,3.261,37.733a7.774,7.774,0,0,1-2.928.51Z" transform="translate(0.177 8.309)" fill="#f3efea"/>
        <path id="Path_44" data-name="Path 44" d="M.848,38.894c-.136,0-.271-.006-.41-.019L0,38.836v-.9L.233,37.8a25.538,25.538,0,0,1,7.481-2.755l2.746-.635c2.687-.624,5.464-1.27,8.216-1.836,1.608-.329,3.267-.516,4.868-.7l.912-.1a17.2,17.2,0,0,0,9.176-3.583c1.119-.909,2.227-1.83,3.335-2.749q1.4-1.161,2.8-2.314l.542-.447c1.063-.871,2.155-1.772,3.281-2.606a9.862,9.862,0,0,1,5.435-1.936,6.458,6.458,0,0,1,1.4.109l.2.026a1.461,1.461,0,0,1,.512.209c.068.041.148.084.238.131l.858.429-1.167.6a3.594,3.594,0,0,1-.622.29c-.5.161-1,.289-1.507.406a10.721,10.721,0,0,0-4.575,2.178c-.792.657-1.568,1.334-2.34,2.01-.822.715-1.64,1.43-2.48,2.121-1.624,1.347-3.316,2.687-5.027,3.977a16.87,16.87,0,0,1-8.294,3.208c-.837.107-1.673.2-2.513.29-1.527.165-3.106.339-4.631.6A137.676,137.676,0,0,0,3.55,38.346l-.219.065a8.572,8.572,0,0,1-2.482.483m48.392-19.8c-.057,0-.109,0-.162.006a8.9,8.9,0,0,0-4.914,1.749c-1.1.818-2.188,1.711-3.239,2.574l-.547.448c-.935.764-1.866,1.537-2.793,2.31-1.112.921-2.223,1.844-3.342,2.757a18.15,18.15,0,0,1-9.673,3.79l-.916.106c-1.582.177-3.213.363-4.781.684-2.741.563-5.513,1.2-8.193,1.829l-2.748.638a29.884,29.884,0,0,0-5.064,1.559l.189-.057.215-.064A138.79,138.79,0,0,1,18.91,33.771c1.556-.271,3.15-.447,4.691-.613.832-.091,1.666-.184,2.5-.289a15.985,15.985,0,0,0,7.835-3.019c1.7-1.283,3.376-2.613,4.993-3.951.834-.687,1.647-1.4,2.458-2.105.78-.683,1.563-1.364,2.358-2.026A11.761,11.761,0,0,1,48.72,19.39c.347-.08.695-.164,1.037-.262a4.574,4.574,0,0,0-.516-.033" transform="translate(0.027 8.158)" fill="#f3efea"/>
        <path id="Path_45" data-name="Path 45" d="M21.791,124.938a9.118,9.118,0,0,1-.251-.921c-.567-3.328-1.206-6.646-1.659-9.988-.4-2.949-.654-5.925-.848-8.9a21.5,21.5,0,0,1,1.289-8.89c1.179-3.2,2.372-6.4,3.683-9.549A114.164,114.164,0,0,0,30.66,64.87c.291-1.479.715-2.933,1.1-4.394a4.246,4.246,0,0,1,.37-.885c.049-.094.2-.136.307-.2a.98.98,0,0,1,.075.319c-.213,1.589-.419,3.181-.657,4.768A80.146,80.146,0,0,1,28.5,79.4c-1.143,3.231-2.4,6.422-3.6,9.63-1.041,2.762-2.119,5.513-3.126,8.287a20.875,20.875,0,0,0-1.183,8.265c.2,3.815.539,7.623.828,11.434.181,2.409.378,4.816.564,7.224.017.219,0,.441,0,.661l-.186.035" transform="translate(8.571 26.728)" fill="#f3efea"/>
        <path id="Path_46" data-name="Path 46" d="M21.783,125.69l-.3-.39-.084-.27a5.267,5.267,0,0,1-.18-.7c-.162-.951-.332-1.9-.5-2.851-.415-2.337-.841-4.755-1.164-7.152-.347-2.575-.619-5.413-.853-8.929a21.992,21.992,0,0,1,1.32-9.089c1.13-3.071,2.348-6.342,3.689-9.566a114.089,114.089,0,0,0,6.628-21.733c.231-1.164.542-2.326.844-3.447l.261-.977a4.848,4.848,0,0,1,.406-.985.863.863,0,0,1,.412-.354l.568-.365.222.624a1.039,1.039,0,0,1,.087.5l-.071.541c-.189,1.409-.377,2.82-.584,4.228A81.563,81.563,0,0,1,29.1,79.793c-.8,2.265-1.669,4.547-2.514,6.751q-.548,1.444-1.092,2.886l-1.014,2.659c-.716,1.871-1.433,3.741-2.114,5.623a20.418,20.418,0,0,0-1.153,8.077c.146,2.815.373,5.677.595,8.444l.233,2.98q.154,2.049.318,4.1l.245,3.125c.01.164.01.336.007.5l0,.595ZM31.72,63.3c-.162.628-.313,1.26-.434,1.889A115.6,115.6,0,0,1,24.6,87.11c-1.33,3.207-2.543,6.466-3.673,9.53a20.938,20.938,0,0,0-1.259,8.692c.229,3.493.5,6.309.844,8.864.191,1.415.418,2.842.658,4.254-.029-.387-.059-.777-.09-1.166l-.233-2.973c-.219-2.775-.448-5.644-.6-8.474a21.366,21.366,0,0,1,1.214-8.452c.683-1.888,1.4-3.764,2.119-5.641l1.009-2.652c.363-.966.731-1.929,1.1-2.891.841-2.2,1.708-4.475,2.5-6.728a80.524,80.524,0,0,0,3.335-14.84c.068-.442.132-.887.2-1.33" transform="translate(8.421 26.498)" fill="#f3efea"/>
        <path id="Path_47" data-name="Path 47" d="M39.315,76.012a7.766,7.766,0,0,1-.726-.59c-1.9-1.956-3.831-3.882-5.662-5.9A37.68,37.68,0,0,1,29.443,65.2a19.49,19.49,0,0,1-3.329-11.084,10.909,10.909,0,0,1,3.415-8.067c1.24-1.2,2.617-2.265,3.93-3.395.547-.47,1.1-.932,1.624-1.425A10.508,10.508,0,0,0,38.361,30.76c-.318-1.463-.684-2.916-1-4.379a7.952,7.952,0,0,1-.08-1.195l.226-.133a1.589,1.589,0,0,0,.107.3,19.122,19.122,0,0,1,2.748,7.523,10.982,10.982,0,0,1-2.617,8.349,21.742,21.742,0,0,1-3.521,3.289c-.983.783-1.974,1.56-2.926,2.38a9.821,9.821,0,0,0-3.437,8.867,20.38,20.38,0,0,0,4.608,11.015c1.659,2.066,3.318,4.133,4.95,6.221.658.842,1.246,1.74,1.862,2.616a2.068,2.068,0,0,1,.149.3l-.117.1" transform="translate(11.779 11.275)" fill="#f3efea"/>
        <path id="Path_48" data-name="Path 48" d="M39.484,76.866l-.542-.426a4.558,4.558,0,0,1-.55-.461L36.85,74.4c-1.369-1.4-2.788-2.849-4.134-4.328a38.587,38.587,0,0,1-3.524-4.382,19.923,19.923,0,0,1-3.411-11.354,11.342,11.342,0,0,1,3.561-8.41c.858-.831,1.789-1.605,2.687-2.353.425-.351.848-.7,1.266-1.06l.313-.268c.436-.376.874-.748,1.292-1.144a10.1,10.1,0,0,0,3.139-10.014c-.148-.674-.306-1.349-.464-2.023-.184-.784-.368-1.568-.535-2.358a4.2,4.2,0,0,1-.078-.893c0-.122-.009-.247-.016-.368l-.019-.294.976-.583.249.68a19.855,19.855,0,0,1,2.838,7.8,11.384,11.384,0,0,1-2.717,8.706,22.61,22.61,0,0,1-3.6,3.363l-.384.307c-.851.676-1.7,1.353-2.529,2.061a9.285,9.285,0,0,0-3.27,8.457A19.725,19.725,0,0,0,33,66.693l.161.2c1.607,2,3.212,4,4.79,6.019.483.618.931,1.266,1.376,1.914l.5.724a1.51,1.51,0,0,1,.154.293l.144.32-.335.423ZM38.161,27.3c.113.515.233,1.027.354,1.541.158.679.318,1.356.468,2.037A11,11,0,0,1,35.564,41.8c-.429.406-.882.79-1.33,1.176l-.313.265c-.418.361-.847.718-1.273,1.072-.886.737-1.8,1.5-2.633,2.3a10.421,10.421,0,0,0-3.268,7.721,19.013,19.013,0,0,0,3.245,10.814,37.71,37.71,0,0,0,3.441,4.269c1.028,1.13,2.105,2.249,3.173,3.344-1.388-1.763-2.793-3.513-4.2-5.265l-.162-.2a20.891,20.891,0,0,1-4.71-11.271,10.3,10.3,0,0,1,3.6-9.277c.832-.718,1.692-1.4,2.551-2.085l.384-.306a21.411,21.411,0,0,0,3.448-3.213,10.484,10.484,0,0,0,2.514-8A16.93,16.93,0,0,0,38.161,27.3" transform="translate(11.63 11.054)" fill="#f3efea"/>
        <path id="Path_49" data-name="Path 49" d="M39.528,43.12a26.8,26.8,0,0,0,3.152,9.334c.722,1.33,1.469,2.648,2.213,3.967a17.325,17.325,0,0,1,2.1,5.6,13.6,13.6,0,0,1-.8,7.205,50.011,50.011,0,0,1-2.013,4.621Q40,82.22,35.739,90.554c-.783,1.537-1.647,3.034-2.478,4.546a2.907,2.907,0,0,1-.27.36l-.113-.071c.083-.218.158-.439.248-.654C35.978,87.841,39,81.027,42.412,74.386a38.663,38.663,0,0,0,2.835-6.705,12.193,12.193,0,0,0-.832-9.221c-.932-1.859-1.972-3.663-2.942-5.5A21.241,21.241,0,0,1,39.1,46.006a12.37,12.37,0,0,1-.048-2.1.748.748,0,0,1,.473-.786" transform="translate(14.823 19.406)" fill="#f3efea"/>
        <path id="Path_50" data-name="Path 50" d="M33.261,96.291l-.709-.425.023-.444c.09-.254.165-.464.248-.67,3.295-7.956,6.253-14.432,9.308-20.389a38.222,38.222,0,0,0,2.8-6.622,11.762,11.762,0,0,0-.8-8.867c-.557-1.108-1.153-2.2-1.747-3.286-.4-.735-.8-1.469-1.192-2.21a21.662,21.662,0,0,1-2.423-7.107,13.066,13.066,0,0,1-.048-2.187,1.18,1.18,0,0,1,.806-1.227l.55-.177.075.573a26.252,26.252,0,0,0,3.1,9.167c.6,1.1,1.214,2.192,1.829,3.284l.384.676a17.882,17.882,0,0,1,2.148,5.752,13.954,13.954,0,0,1-.829,7.458c-.606,1.607-1.289,3.177-2.027,4.665q-4.183,8.381-8.436,16.715c-.57,1.114-1.176,2.207-1.786,3.3l-.7,1.262a2.287,2.287,0,0,1-.229.323Zm6.47-50.112a20.821,20.821,0,0,0,2.314,6.751c.387.734.787,1.466,1.186,2.194.6,1.1,1.2,2.2,1.76,3.316a12.7,12.7,0,0,1,.867,9.576A39.823,39.823,0,0,1,42.991,74.8c-2.081,4.05-4.111,8.342-6.237,13.181q3.589-7.067,7.133-14.158a49.49,49.49,0,0,0,1.991-4.576,13.017,13.017,0,0,0,.783-6.954,17.016,17.016,0,0,0-2.042-5.442l-.381-.676c-.618-1.095-1.235-2.194-1.834-3.3a28.886,28.886,0,0,1-2.672-6.7" transform="translate(14.677 19.208)" fill="#f3efea"/>
        <path id="Path_51" data-name="Path 51" d="M45.644,57.628c.049-.336.075-.68.151-1.011.583-2.543,1.14-5.094,1.771-7.626,1.025-4.109,2.066-8.217,3.168-12.307a29.823,29.823,0,0,0,.6-8.249c-.026-2.107.042-4.215.123-6.322a6.9,6.9,0,0,1,.387-1.543,1.983,1.983,0,0,1,.233-.373,2.018,2.018,0,0,1,.116.358c.233,2.772.442,5.546.7,8.317a24.6,24.6,0,0,1-.94,9.881c-1.582,4.968-3.01,9.985-4.549,14.966-.381,1.237-.932,2.422-1.411,3.628a2.314,2.314,0,0,1-.2.329c-.052-.017-.106-.033-.158-.049" transform="translate(20.569 9.09)" fill="#f3efea"/>
        <path id="Path_52" data-name="Path 52" d="M46.245,58.514l-.566-.075-.406-.115.1-.729c.03-.247.064-.494.116-.738l.4-1.768c.442-1.959.886-3.919,1.372-5.867.919-3.692,2.017-8.041,3.17-12.317a26.906,26.906,0,0,0,.6-7.547l-.009-.57c-.026-2,.03-3.983.125-6.345a4.582,4.582,0,0,1,.278-1.25c.042-.135.087-.268.125-.4a1.113,1.113,0,0,1,.193-.357l.648-1,.368,1.108a1.257,1.257,0,0,1,.087.325l.226,2.781c.151,1.844.3,3.689.471,5.532a25.018,25.018,0,0,1-.961,10.073c-.912,2.858-1.786,5.783-2.63,8.613-.629,2.117-1.262,4.237-1.917,6.35-.276.89-.638,1.759-.987,2.6-.148.352-.294.7-.434,1.059a1.551,1.551,0,0,1-.174.309Zm5.834-35.19c-.071,1.987-.113,3.714-.09,5.452l.007.568a28.35,28.35,0,0,1-.626,7.811c-1.153,4.269-2.249,8.613-3.168,12.3-.339,1.359-.655,2.723-.969,4.089q.916-2.978,1.8-5.958c.847-2.833,1.721-5.764,2.633-8.631a24.182,24.182,0,0,0,.924-9.692c-.174-1.844-.325-3.695-.476-5.544Z" transform="translate(20.402 8.744)" fill="#f3efea"/>
        <path id="Path_53" data-name="Path 53" d="M44.923.938c-.438.1-.873.225-1.315.3a18.245,18.245,0,0,0-7.794,3.221,7.925,7.925,0,0,0-3.5,6.825,7.706,7.706,0,0,0,2.815,6.048c1.608,1.325,3.3,2.549,4.937,3.838a15.609,15.609,0,0,1,1.23,1.172,2.189,2.189,0,0,1,.219.371,4.024,4.024,0,0,1-.616-.148,22.547,22.547,0,0,1-2.081-.96c-1.385-.79-2.757-1.607-4.1-2.465a9.483,9.483,0,0,1-.541-15.179,16.548,16.548,0,0,1,8.484-3.6,6.977,6.977,0,0,1,1.647.059,2.04,2.04,0,0,1,.638.332c-.009.061-.019.122-.028.183" transform="translate(13.819 0.151)" fill="#f3efea"/>
        <path id="Path_54" data-name="Path 54" d="M42.625,23.591,41.3,23.285a2.066,2.066,0,0,1-.452-.126l-.512-.22a16.034,16.034,0,0,1-1.61-.761C37.2,21.3,35.85,20.493,34.611,19.7a9.6,9.6,0,0,1-4.281-7.6,9.9,9.9,0,0,1,3.7-8.358,17.03,17.03,0,0,1,8.723-3.7A6.937,6.937,0,0,1,44.517.1a1.471,1.471,0,0,1,.648.283,1.768,1.768,0,0,0,.162.1l.312.168-.123.655-.336.255-.41.1c-.309.078-.615.154-.931.21A17.655,17.655,0,0,0,36.249,5a7.479,7.479,0,0,0-3.3,6.424,7.229,7.229,0,0,0,2.638,5.687c.964.8,1.959,1.554,2.954,2.311.664.5,1.324,1.008,1.975,1.523a10.076,10.076,0,0,1,.957.893l.313.315a1.128,1.128,0,0,1,.21.315ZM43.311.968a3.536,3.536,0,0,0-.436.025,16.13,16.13,0,0,0-8.242,3.5,8.962,8.962,0,0,0-3.338,7.555,8.634,8.634,0,0,0,3.835,6.843c1.225.786,2.559,1.588,4.078,2.453.231.128.464.245.7.358-.648-.512-1.3-1.009-1.955-1.508-1.006-.764-2.013-1.53-2.986-2.335a8.168,8.168,0,0,1-2.987-6.408,8.393,8.393,0,0,1,3.692-7.224A18.505,18.505,0,0,1,43.395.968Zm1.76.12-.061-.012Z" transform="translate(13.669 0)" fill="#f3efea"/>
        <path id="Path_55" data-name="Path 55" d="M35.006,8.088a1.782,1.782,0,0,1,.612.22,6.577,6.577,0,0,1,1,1.072,4.436,4.436,0,0,0,3.88,1.875c2.745.042,5.49.164,8.235.268a9.023,9.023,0,0,1,1.154.187c0,.059.009.12.014.181a11.889,11.889,0,0,1-1.479.262q-3.815.2-7.633.344a9.664,9.664,0,0,1-1.7-.1c-2.187-.3-3.345-1.74-4.022-3.686-.054-.154-.086-.316-.128-.473.023-.052.045-.1.068-.154" transform="translate(15.751 3.64)" fill="#f3efea"/>
        <path id="Path_56" data-name="Path 56" d="M40.635,13.17a10.939,10.939,0,0,1-1.454-.106c-2.133-.3-3.576-1.607-4.412-4.008a3.925,3.925,0,0,1-.106-.378l-.075-.293.313-.709.418.139a1.261,1.261,0,0,0,.162.044,1.343,1.343,0,0,1,.618.276,6.83,6.83,0,0,1,1.07,1.157,3.935,3.935,0,0,0,3.493,1.668c2.235.033,4.466.12,6.7.206l1.549.061a5.483,5.483,0,0,1,.867.126c.117.025.233.048.351.067l.377.064.064.993-.422.077c-.146.026-.294.058-.441.091a6.863,6.863,0,0,1-1.1.178q-3.822.2-7.643.342c-.109,0-.215.006-.328.006M35.876,9.249a4.186,4.186,0,0,0,3.441,2.858,9.211,9.211,0,0,0,1.608.093q1.973-.074,3.946-.162c-1.405-.051-2.815-.094-4.224-.115a4.876,4.876,0,0,1-4.269-2.081,4.658,4.658,0,0,0-.5-.593" transform="translate(15.593 3.455)" fill="#f3efea"/>
      </g>
    </g>
    <text id="Meets_the_soul" data-name="Meets the soul" transform="translate(740 3628)" fill="#f2efeb" font-size="17" font-family="DMSerifDisplay-Italic, DM Serif Display" font-style="italic"><tspan x="0" y="0">Meets the soul</tspan></text>
  </g>
</svg>
