<svg xmlns="http://www.w3.org/2000/svg" xmlns:xlink="http://www.w3.org/1999/xlink" width="225" height="67" viewBox="0 0 225 67">
  <defs>
    <clipPath id="clip-path">
      <rect id="Rectangle_16" data-name="Rectangle 16" width="225" height="67" transform="translate(0.334 -0.311)" fill="none"/>
    </clipPath>
  </defs>
  <g id="Group_18" data-name="Group 18" transform="translate(-0.334 0.311)">
    <g id="Group_17" data-name="Group 17" transform="translate(0 0)" clip-path="url(#clip-path)">
      <path id="Path_57" data-name="Path 57" d="M49.808,57.574q-.5-.768-1.131-1.891c-.427-.75-.879-1.6-1.36-2.546s-.95-1.919-1.4-2.928L26.74,7.36H23.914L3.672,51.927q-1.128,2.566-2.084,4.264A12.5,12.5,0,0,1,0,58.556V58.7H7.2v-.142a1.337,1.337,0,0,1-.138-.4,3.35,3.35,0,0,1-.07-.754,8.478,8.478,0,0,1,.6-3.12c.4-1.03.776-1.978,1.131-2.842L14.1,39.093l9.749-22.406,9.927,22.268,5.722,12.763A19.523,19.523,0,0,1,40.638,55a10.834,10.834,0,0,1,.3,2.4,5.976,5.976,0,0,1-.036.631,1.953,1.953,0,0,1-.106.525V58.7h9.678v-.142a10.953,10.953,0,0,1-.67-.981" transform="translate(0 2.8)" fill="#f2efeb"/>
      <path id="Path_58" data-name="Path 58" d="M19.2,38.641l1.124-8.477a.393.393,0,0,1,.777-.012L22.5,38.589l6.789-5.2a.393.393,0,0,1,.559.541l-4.982,6.952,8.479,1.124a.393.393,0,0,1,.012.777l-8.439,1.394,5.2,6.789a.392.392,0,0,1-.54.558l-6.952-4.981L21.5,55.02a.393.393,0,0,1-.777.012L19.328,46.6l-6.789,5.2a.393.393,0,0,1-.559-.541L16.96,44.3,8.483,43.179a.393.393,0,0,1-.012-.777l8.437-1.393-5.2-6.79a.393.393,0,0,1,.541-.558Z" transform="translate(3.097 11.345)" fill="#f2efeb"/>
      <path id="Path_59" data-name="Path 59" d="M50.8,9.12,85.085,45.339V22.074q0-2.808-.066-4.906t-.2-3.636Q84.686,12,84.5,10.971a17.063,17.063,0,0,0-.382-1.719V9.12h5.926v.133a15.086,15.086,0,0,0-.367,1.719q-.166,1.025-.3,2.561t-.2,3.636q-.066,2.1-.066,4.906v35.1H87.948L53.659,20.985v22.6q0,2.81.066,4.906t.2,3.621q.13,1.518.3,2.543a15.147,15.147,0,0,0,.366,1.72v.131H48.665v-.131a17.452,17.452,0,0,0,.384-1.72q.182-1.023.316-2.543t.2-3.621q.066-2.1.066-4.906V22.074q0-2.808-.066-4.906t-.2-3.636q-.133-1.536-.316-2.561a17.414,17.414,0,0,0-.384-1.719V9.12Z" transform="translate(18.513 3.469)" fill="#f2efeb"/>
      <path id="Path_60" data-name="Path 60" d="M109.085,12.1a65.666,65.666,0,0,0-7.091.348q-3.162.348-5.46.744-2.663.495-4.76,1.089L92.74,8.93c.266.021.667.044,1.2.065s1.126.044,1.781.065,1.343.041,2.065.051,1.4.022,2.047.035,1.215.021,1.714.032.859.015,1.082.015h19.008c.221,0,.583,0,1.082-.015s1.07-.023,1.713-.032,1.327-.023,2.047-.035,1.411-.028,2.064-.051,1.249-.041,1.782-.065.932-.044,1.2-.065l.965,5.352q-2.131-.592-4.794-1.089-2.294-.4-5.46-.744a65.657,65.657,0,0,0-7.09-.348V43.661q0,2.812.083,4.907t.2,3.619q.116,1.52.3,2.544a17.547,17.547,0,0,0,.382,1.719v.133h-7.955v-.133a15.494,15.494,0,0,0,.366-1.719q.166-1.025.3-2.544t.2-3.619q.068-2.1.068-4.907Z" transform="translate(34.913 3.397)" fill="#f2efeb"/>
      <path id="Path_61" data-name="Path 61" d="M168.824,25.545q0-2.808-.066-4.907t-.2-3.635q-.133-1.536-.3-2.561a14.821,14.821,0,0,0-.366-1.719v-.133h5.926v.133a17.42,17.42,0,0,0-.384,1.719,25.527,25.527,0,0,0-.3,2.561q-.118,1.536-.2,3.635t-.081,4.907V43.391a21.285,21.285,0,0,1-1.365,8.063,14.334,14.334,0,0,1-3.8,5.469,14.94,14.94,0,0,1-5.825,3.107,26.865,26.865,0,0,1-7.424.975,29.11,29.11,0,0,1-7.507-.925,16.234,16.234,0,0,1-6.059-2.99,14.026,14.026,0,0,1-4.045-5.355,19.627,19.627,0,0,1-1.465-8.015V25.545q0-2.808-.066-4.907T135.1,17q-.132-1.536-.316-2.561a17.411,17.411,0,0,0-.384-1.719v-.133h7.99v.133a17.074,17.074,0,0,0-.382,1.719q-.182,1.025-.316,2.561t-.2,3.635q-.066,2.1-.066,4.907v18.54a15.518,15.518,0,0,0,1.182,6.493,10.736,10.736,0,0,0,3.113,4.065,11.4,11.4,0,0,0,4.394,2.1,21.533,21.533,0,0,0,10.054,0,11.25,11.25,0,0,0,4.377-2.1,10.828,10.828,0,0,0,3.1-4.065,15.518,15.518,0,0,0,1.182-6.493Zm-23.2-22.5a3.088,3.088,0,0,1,.232-1.19,2.921,2.921,0,0,1,.65-.976,3.049,3.049,0,0,1,.965-.645A3.113,3.113,0,0,1,148.684,0a3.154,3.154,0,0,1,1.2.231,3.009,3.009,0,0,1,.983.645,2.982,2.982,0,0,1,.649.976,3.063,3.063,0,0,1,.233,1.19,3.063,3.063,0,0,1-.233,1.19,2.976,2.976,0,0,1-.649.975,2.941,2.941,0,0,1-.983.643,3.1,3.1,0,0,1-1.2.233,3.064,3.064,0,0,1-1.215-.233,2.978,2.978,0,0,1-.965-.643,2.915,2.915,0,0,1-.65-.975,3.088,3.088,0,0,1-.232-1.19m12.25,0a3.063,3.063,0,0,1,.233-1.19,2.939,2.939,0,0,1,.649-.976,3.009,3.009,0,0,1,.983-.645,3.229,3.229,0,0,1,2.4,0,3.038,3.038,0,0,1,.983.645,2.957,2.957,0,0,1,.647.976A3.063,3.063,0,0,1,164,3.041a3.063,3.063,0,0,1-.233,1.19,2.915,2.915,0,0,1-1.63,1.618,3.194,3.194,0,0,1-2.4,0,2.923,2.923,0,0,1-1.632-1.618,3.063,3.063,0,0,1-.233-1.19" transform="translate(51.129 0)" fill="#f2efeb"/>
    </g>
  </g>
</svg>
