<?xml version="1.0" encoding="UTF-8"?>
<svg id="Layer_1" xmlns="http://www.w3.org/2000/svg" xmlns:xlink="http://www.w3.org/1999/xlink" version="1.1" viewBox="0 0 362.5 86">
  <!-- Generator: Adobe Illustrator 29.3.0, SVG Export Plug-In . SVG Version: 2.1.0 Build 67)  -->
  <defs>
    <style>
      .st0, .st1 {
        fill: #f2efeb;
      }

      .st1 {
        font-family: Marcellus-Regular, Marcellus;
        font-size: 37px;
        isolation: isolate;
      }
    </style>
  </defs>
  <path id="Path_97" class="st0" d="M137,77.9c-.4-.7-.9-1.5-1.5-2.4-.5-1-1.1-2.1-1.7-3.3s-1.2-2.5-1.8-3.8l-24.7-55.1h-3.6l-26,57.3c-1,2.2-1.9,4-2.7,5.5-.6,1.1-1.2,2.1-2,3v.2h9.3v-.2c0-.2-.1-.3-.2-.5,0-.3,0-.6,0-1,0-1.4.3-2.7.8-4,.5-1.3,1-2.5,1.5-3.7l6.9-15.9,12.5-28.8,12.8,28.6,7.4,16.4c.6,1.4,1.1,2.8,1.5,4.2.2,1,.4,2,.4,3.1,0,.3,0,.5,0,.8,0,.2,0,.5-.1.7v.2h12.5v-.2c-.3-.4-.6-.8-.9-1.3"/>
  <path id="Path_99" class="st0" d="M101.6,64.5l1.4-10.9c0-.3.3-.5.6-.4.2,0,.4.2.4.4l1.8,10.9,8.7-6.7c.2-.2.5-.1.7,0,.1.2.1.4,0,.6l-6.4,8.9,10.9,1.4c.3,0,.5.3.4.6,0,.2-.2.4-.4.4l-10.9,1.8,6.7,8.7c.2.2.2.5,0,.7-.2.2-.5.2-.7,0l-8.9-6.4-1.4,10.9c0,.3-.2.5-.5.5-.3,0-.5-.2-.5-.5h0l-1.8-10.9-8.7,6.7c-.2.2-.5.1-.7,0-.1-.2-.1-.4,0-.6l6.4-8.9-10.9-1.4c-.3,0-.5-.3-.4-.6,0-.2.2-.4.4-.4l10.9-1.8-6.7-8.7c-.2-.2-.1-.5,0-.7.2-.1.4-.1.6,0l8.9,6.4Z"/>
  <path id="Path_100" class="st0" d="M162.1,16.4l44.1,46.6v-29.9c0-2.4,0-4.5,0-6.3s-.1-3.4-.3-4.7c-.1-1.3-.2-2.4-.4-3.3-.1-.7-.3-1.5-.5-2.2v-.2h7.6v.2c-.2.7-.4,1.5-.5,2.2-.1.9-.3,2-.4,3.3-.1,1.3-.2,2.9-.3,4.7,0,1.8,0,3.9,0,6.3v45.2h-1.5l-44.1-46.6v29.1c0,2.4,0,4.5,0,6.3,0,1.8.1,3.4.3,4.7.1,1.3.2,2.4.4,3.3.1.7.3,1.5.5,2.2v.2h-7.6v-.2c.2-.7.4-1.5.5-2.2.2-.9.3-2,.4-3.3.1-1.3.2-2.9.3-4.7,0-1.8,0-3.9,0-6.3v-27.7c0-2.4,0-4.5,0-6.3s-.1-3.4-.3-4.7c-.1-1.3-.2-2.4-.4-3.3-.1-.7-.3-1.5-.5-2.2v-.2h2.7Z"/>
  <path id="Path_102" class="st0" d="M258.2,20.2c-3,0-6.1.1-9.1.4-2.7.3-5.1.6-7,1-2.3.4-4.3.9-6.1,1.4l1.2-6.9c.3,0,.9,0,1.5,0s1.4,0,2.3,0,1.7,0,2.7,0,1.8,0,2.6,0,1.6,0,2.2,0,1.1,0,1.4,0h24.5c.3,0,.7,0,1.4,0s1.4,0,2.2,0,1.7,0,2.6,0,1.8,0,2.7,0,1.6,0,2.3,0,1.2,0,1.5,0l1.2,6.9c-1.8-.5-3.9-1-6.2-1.4-2-.3-4.3-.7-7-1-3-.3-6.1-.5-9.1-.4v40.6c0,2.4,0,4.5.1,6.3s.2,3.3.3,4.7c0,1.3.2,2.4.4,3.3.1.7.3,1.5.5,2.2v.2h-10.2v-.2c.2-.7.4-1.5.5-2.2.1-.9.3-2,.4-3.3.1-1.3.2-2.9.3-4.7,0-1.8,0-3.9,0-6.3V20.2Z"/>
  <path id="Path_104" class="st0" d="M355.9,33.1c0-2.4,0-4.5,0-6.3,0-1.8-.1-3.4-.3-4.7-.1-1.3-.2-2.4-.4-3.3-.1-.7-.3-1.5-.5-2.2v-.2h7.6v.2c-.2.7-.4,1.5-.5,2.2-.2,1.1-.3,2.2-.4,3.3-.1,1.3-.2,2.9-.3,4.7,0,1.8-.1,3.9-.1,6.3v23c0,3.5-.5,7.1-1.8,10.4-1.1,2.7-2.7,5.1-4.9,7-2.2,1.9-4.7,3.2-7.5,4-3.1.9-6.3,1.3-9.6,1.3-3.3,0-6.5-.4-9.7-1.2-2.8-.7-5.5-2-7.8-3.8-2.3-1.8-4-4.2-5.2-6.9-1.3-3.3-2-6.8-1.9-10.3v-23.4c0-2.4,0-4.5,0-6.3,0-1.8-.1-3.4-.3-4.7-.1-1.3-.2-2.4-.4-3.3-.1-.7-.3-1.5-.5-2.2v-.2h10.3v.2c-.2.7-.4,1.5-.5,2.2-.2.9-.3,2-.4,3.3-.1,1.3-.2,2.9-.3,4.7,0,1.8,0,3.9,0,6.3v23.9c0,2.9.4,5.7,1.5,8.4.9,2,2.3,3.8,4,5.2,1.7,1.3,3.6,2.2,5.7,2.7,4.3,1,8.7,1,12.9,0,2.1-.5,4-1.4,5.6-2.7,1.7-1.4,3.1-3.2,4-5.2,1.1-2.6,1.6-5.5,1.5-8.4v-23.9ZM326,4.1c0-.5,0-1,.3-1.5.2-.5.5-.9.8-1.3.4-.4.8-.6,1.2-.8.5-.2,1-.3,1.6-.3.5,0,1.1.1,1.5.3.5.2.9.5,1.3.8.4.4.6.8.8,1.3.2.5.3,1,.3,1.5,0,.5,0,1-.3,1.5-.2.5-.5.9-.8,1.3-.4.4-.8.6-1.3.8-.5.2-1,.3-1.5.3-.5,0-1.1,0-1.6-.3-.5-.2-.9-.5-1.2-.8-.4-.4-.6-.8-.8-1.3-.2-.5-.3-1-.3-1.5M341.8,4.1c0-.5,0-1,.3-1.5.2-.5.5-.9.8-1.3.4-.4.8-.6,1.3-.8,1-.4,2.1-.4,3.1,0,.5.2.9.5,1.3.8.4.4.6.8.8,1.3.2.5.3,1,.3,1.5,0,.5,0,1-.3,1.5-.4,1-1.1,1.7-2.1,2.1-1,.4-2.1.4-3.1,0-1-.4-1.7-1.1-2.1-2.1-.2-.5-.3-1-.3-1.5"/>
  <text class="st1" transform="translate(.2 53.7)"><tspan x="0" y="0">by</tspan></text>
</svg>