<svg xmlns="http://www.w3.org/2000/svg" xmlns:xlink="http://www.w3.org/1999/xlink" width="362.548" height="86.041" viewBox="0 0 362.548 86.041">
  <defs>
    <clipPath id="clip-path">
      <rect id="Rectangle_109" data-name="Rectangle 109" width="362.547" height="86.041" fill="#f2efeb"/>
    </clipPath>
  </defs>
  <g id="Group_151" data-name="Group 151" clip-path="url(#clip-path)">
    <path id="Path_97" data-name="Path 97" d="M105.146,72.086q-.639-.988-1.454-2.433c-.549-.964-1.131-2.053-1.749-3.275s-1.222-2.469-1.8-3.767L75.468,7.485H71.833L45.791,64.82q-1.452,3.3-2.682,5.486a16.085,16.085,0,0,1-2.042,3.042v.183h9.267v-.183a1.72,1.72,0,0,1-.178-.517,4.31,4.31,0,0,1-.091-.97,10.907,10.907,0,0,1,.771-4.014c.517-1.325,1-2.545,1.454-3.657L59.2,48.31,71.742,19.485,84.513,48.132l7.361,16.42a25.118,25.118,0,0,1,1.474,4.218,13.937,13.937,0,0,1,.391,3.092,7.685,7.685,0,0,1-.046.812,2.513,2.513,0,0,1-.137.675v.183h12.451v-.183a14.1,14.1,0,0,1-.861-1.263" transform="translate(31.864 5.808)" fill="#f2efeb"/>
    <path id="Path_98" data-name="Path 98" d="M105.146,72.086q-.639-.988-1.454-2.433c-.549-.964-1.131-2.053-1.749-3.275s-1.222-2.469-1.8-3.767L75.468,7.485H71.833L45.791,64.82q-1.452,3.3-2.682,5.486a16.085,16.085,0,0,1-2.042,3.042v.183h9.267v-.183a1.72,1.72,0,0,1-.178-.517,4.31,4.31,0,0,1-.091-.97,10.907,10.907,0,0,1,.771-4.014c.517-1.325,1-2.545,1.454-3.657L59.2,48.31,71.742,19.485,84.513,48.132l7.361,16.42a25.118,25.118,0,0,1,1.474,4.218,13.937,13.937,0,0,1,.391,3.092,7.685,7.685,0,0,1-.046.812,2.513,2.513,0,0,1-.137.675v.183h12.451v-.183A14.1,14.1,0,0,1,105.146,72.086Z" transform="translate(31.864 5.808)" fill="#f2efeb"/>
    <path id="Path_99" data-name="Path 99" d="M63.435,41.293l1.446-10.906a.505.505,0,0,1,1-.016l1.794,10.854,8.734-6.69a.506.506,0,0,1,.719.7l-6.409,8.944,10.908,1.446a.506.506,0,0,1,.016,1L70.785,48.414l6.69,8.734a.5.5,0,0,1-.694.717l-8.943-6.407L66.39,62.364a.5.5,0,0,1-1,.016L63.6,51.526l-8.734,6.69a.506.506,0,0,1-.719-.7l6.407-8.943L49.647,47.13a.506.506,0,0,1-.016-1l10.854-1.792L53.8,35.6a.505.505,0,0,1,.7-.717Z" transform="translate(38.181 23.236)" fill="#f2efeb"/>
    <path id="Path_100" data-name="Path 100" d="M92.474,9.245l44.112,46.6V25.91q0-3.612-.085-6.312t-.258-4.678q-.17-1.977-.407-3.294a21.955,21.955,0,0,0-.492-2.211v-.17h7.624v.17a19.408,19.408,0,0,0-.472,2.211q-.213,1.319-.385,3.294t-.257,4.678q-.085,2.7-.085,6.312V71.065h-1.5L96.157,24.509V53.59q0,3.615.085,6.312t.258,4.658q.168,1.953.385,3.271a19.485,19.485,0,0,0,.471,2.213v.169H89.732v-.169a22.455,22.455,0,0,0,.494-2.213q.234-1.316.407-3.271T90.89,59.9q.085-2.7.085-6.312V25.91q0-3.612-.085-6.312t-.258-4.678q-.17-1.977-.407-3.294a22.406,22.406,0,0,0-.494-2.211v-.17Z" transform="translate(69.624 7.173)" fill="#f2efeb"/>
    <path id="Path_101" data-name="Path 101" d="M92.474,9.245l44.112,46.6V25.91q0-3.612-.085-6.312t-.258-4.678q-.17-1.977-.407-3.294a21.955,21.955,0,0,0-.492-2.211v-.17h7.624v.17a19.408,19.408,0,0,0-.472,2.211q-.213,1.319-.385,3.294t-.257,4.678q-.085,2.7-.085,6.312V71.065h-1.5L96.157,24.509V53.59q0,3.615.085,6.312t.258,4.658q.168,1.953.385,3.271a19.485,19.485,0,0,0,.471,2.213v.169H89.732v-.169a22.455,22.455,0,0,0,.494-2.213q.234-1.316.407-3.271T90.89,59.9q.085-2.7.085-6.312V25.91q0-3.612-.085-6.312t-.258-4.678q-.17-1.977-.407-3.294a22.406,22.406,0,0,0-.494-2.211v-.17Z" transform="translate(69.624 7.173)" fill="#f2efeb"/>
    <path id="Path_102" data-name="Path 102" d="M155.112,13.134a84.479,84.479,0,0,0-9.123.448q-4.068.448-7.024.957-3.426.637-6.123,1.4l1.241-6.885c.343.027.858.057,1.541.083s1.449.057,2.291.083,1.728.053,2.657.066,1.8.028,2.634.044,1.563.027,2.206.041,1.1.02,1.392.02h24.454c.284,0,.749-.005,1.392-.02s1.376-.03,2.2-.041,1.707-.03,2.634-.044,1.815-.036,2.655-.066,1.607-.053,2.293-.083,1.2-.057,1.541-.083l1.241,6.885q-2.741-.762-6.168-1.4-2.952-.511-7.024-.957a84.468,84.468,0,0,0-9.121-.448v40.6q0,3.618.107,6.313t.258,4.656q.149,1.955.385,3.273a22.568,22.568,0,0,0,.492,2.211v.17H153.913v-.17a19.93,19.93,0,0,0,.471-2.211q.213-1.319.385-3.273t.256-4.656q.088-2.7.087-6.313Z" transform="translate(103.074 7.026)" fill="#f2efeb"/>
    <path id="Path_103" data-name="Path 103" d="M155.112,13.134a84.479,84.479,0,0,0-9.123.448q-4.068.448-7.024.957-3.426.637-6.123,1.4l1.241-6.885c.343.027.858.057,1.541.083s1.449.057,2.291.083,1.728.053,2.657.066,1.8.028,2.634.044,1.563.027,2.206.041,1.1.02,1.392.02h24.454c.284,0,.749-.005,1.392-.02s1.376-.03,2.2-.041,1.707-.03,2.634-.044,1.815-.036,2.655-.066,1.607-.053,2.293-.083,1.2-.057,1.541-.083l1.241,6.885q-2.741-.762-6.168-1.4-2.952-.511-7.024-.957a84.468,84.468,0,0,0-9.121-.448v40.6q0,3.618.107,6.313t.258,4.656q.149,1.955.385,3.273a22.568,22.568,0,0,0,.492,2.211v.17H153.913v-.17a19.93,19.93,0,0,0,.471-2.211q.213-1.319.385-3.273t.256-4.656q.088-2.7.087-6.313Z" transform="translate(103.074 7.026)" fill="#f2efeb"/>
    <path id="Path_104" data-name="Path 104" d="M219.752,32.988q0-3.612-.085-6.313T219.409,22q-.171-1.977-.385-3.294a19.07,19.07,0,0,0-.471-2.211v-.17h7.624v.17a22.4,22.4,0,0,0-.494,2.211A32.833,32.833,0,0,0,225.3,22q-.152,1.977-.259,4.676t-.1,6.313V55.947A27.383,27.383,0,0,1,223.18,66.32a18.441,18.441,0,0,1-4.884,7.036,19.22,19.22,0,0,1-7.494,4,34.562,34.562,0,0,1-9.551,1.254,37.449,37.449,0,0,1-9.657-1.19,20.884,20.884,0,0,1-7.794-3.847,18.044,18.044,0,0,1-5.2-6.889,25.25,25.25,0,0,1-1.884-10.311V32.988q0-3.612-.085-6.313T176.368,22q-.171-1.977-.407-3.294a22.406,22.406,0,0,0-.494-2.211v-.17h10.279v.17a21.96,21.96,0,0,0-.492,2.211q-.234,1.319-.407,3.294t-.258,4.676q-.085,2.7-.085,6.313V56.841a19.963,19.963,0,0,0,1.52,8.354,13.812,13.812,0,0,0,4,5.23,14.66,14.66,0,0,0,5.653,2.7,27.7,27.7,0,0,0,12.934,0,14.473,14.473,0,0,0,5.631-2.7,13.93,13.93,0,0,0,3.983-5.23,19.964,19.964,0,0,0,1.52-8.354ZM189.9,4.037a3.972,3.972,0,0,1,.3-1.531,3.759,3.759,0,0,1,.836-1.256,3.923,3.923,0,0,1,1.241-.829,4,4,0,0,1,1.563-.3,4.058,4.058,0,0,1,1.542.3,3.871,3.871,0,0,1,1.264.829,3.836,3.836,0,0,1,.835,1.256,3.941,3.941,0,0,1,.3,1.531,3.941,3.941,0,0,1-.3,1.531,3.829,3.829,0,0,1-.835,1.254,3.783,3.783,0,0,1-1.264.828,3.994,3.994,0,0,1-1.542.3,3.942,3.942,0,0,1-1.563-.3,3.831,3.831,0,0,1-1.241-.828,3.751,3.751,0,0,1-.836-1.254,3.972,3.972,0,0,1-.3-1.531m15.759,0a3.941,3.941,0,0,1,.3-1.531,3.781,3.781,0,0,1,.835-1.256,3.871,3.871,0,0,1,1.264-.829,4.154,4.154,0,0,1,3.083,0,3.908,3.908,0,0,1,1.264.829,3.8,3.8,0,0,1,.833,1.256,3.941,3.941,0,0,1,.3,1.531,3.941,3.941,0,0,1-.3,1.531,3.751,3.751,0,0,1-2.1,2.081,4.109,4.109,0,0,1-3.083,0,3.761,3.761,0,0,1-2.1-2.081,3.941,3.941,0,0,1-.3-1.531" transform="translate(136.148 0.097)" fill="#f2efeb"/>
    <path id="Path_105" data-name="Path 105" d="M219.752,32.988q0-3.612-.085-6.313T219.409,22q-.171-1.977-.385-3.294a19.07,19.07,0,0,0-.471-2.211v-.17h7.624v.17a22.4,22.4,0,0,0-.494,2.211A32.833,32.833,0,0,0,225.3,22q-.152,1.977-.259,4.676t-.1,6.313V55.947A27.383,27.383,0,0,1,223.18,66.32a18.441,18.441,0,0,1-4.884,7.036,19.22,19.22,0,0,1-7.494,4,34.562,34.562,0,0,1-9.551,1.254,37.449,37.449,0,0,1-9.657-1.19,20.884,20.884,0,0,1-7.794-3.847,18.044,18.044,0,0,1-5.2-6.889,25.25,25.25,0,0,1-1.884-10.311V32.988q0-3.612-.085-6.313T176.368,22q-.171-1.977-.407-3.294a22.406,22.406,0,0,0-.494-2.211v-.17h10.279v.17a21.96,21.96,0,0,0-.492,2.211q-.234,1.319-.407,3.294t-.258,4.676q-.085,2.7-.085,6.313V56.841a19.963,19.963,0,0,0,1.52,8.354,13.812,13.812,0,0,0,4,5.23,14.66,14.66,0,0,0,5.653,2.7,27.7,27.7,0,0,0,12.934,0,14.473,14.473,0,0,0,5.631-2.7,13.93,13.93,0,0,0,3.983-5.23,19.964,19.964,0,0,0,1.52-8.354ZM189.9,4.037a3.972,3.972,0,0,1,.3-1.531,3.759,3.759,0,0,1,.836-1.256,3.923,3.923,0,0,1,1.241-.829,4,4,0,0,1,1.563-.3,4.058,4.058,0,0,1,1.542.3,3.871,3.871,0,0,1,1.264.829,3.836,3.836,0,0,1,.835,1.256,3.941,3.941,0,0,1,.3,1.531,3.941,3.941,0,0,1-.3,1.531,3.829,3.829,0,0,1-.835,1.254,3.783,3.783,0,0,1-1.264.828,3.994,3.994,0,0,1-1.542.3,3.942,3.942,0,0,1-1.563-.3,3.831,3.831,0,0,1-1.241-.828,3.751,3.751,0,0,1-.836-1.254A3.972,3.972,0,0,1,189.9,4.037Zm15.759,0a3.941,3.941,0,0,1,.3-1.531,3.781,3.781,0,0,1,.835-1.256,3.871,3.871,0,0,1,1.264-.829,4.154,4.154,0,0,1,3.083,0,3.908,3.908,0,0,1,1.264.829,3.8,3.8,0,0,1,.833,1.256,3.941,3.941,0,0,1,.3,1.531,3.941,3.941,0,0,1-.3,1.531,3.751,3.751,0,0,1-2.1,2.081,4.109,4.109,0,0,1-3.083,0,3.761,3.761,0,0,1-2.1-2.081A3.941,3.941,0,0,1,205.662,4.037Z" transform="translate(136.148 0.097)" fill="#f2efeb"/>
    <text id="by" transform="translate(0.222 53.707)" fill="#f2efeb" font-size="37" font-family="Marcellus-Regular, Marcellus"><tspan x="0" y="0">by</tspan></text>
    <path id="Path_106" data-name="Path 106" d="M5.165,27.405a5.576,5.576,0,0,1,2.064-1.648,6.146,6.146,0,0,1,2.619-.567,5.578,5.578,0,0,1,2.856.7,5.664,5.664,0,0,1,1.973,1.93,9.162,9.162,0,0,1,1.144,2.928,17.271,17.271,0,0,1,.368,3.667,10.553,10.553,0,0,1-.433,3.149,7.139,7.139,0,0,1-1.208,2.362A5.158,5.158,0,0,1,12.686,41.4a5.564,5.564,0,0,1-2.4.513,10.009,10.009,0,0,1-2.914-.4,6.677,6.677,0,0,1-2.1-.989c-.037-.389-.066-.907-.082-1.556s-.028-1.463-.028-2.451Zm0-4.685q0-1.556.037-2.717T5.312,18c.048-.561.1-1.03.165-1.408a8.725,8.725,0,0,1,.2-.952v-.073H1.423v.073q.109.384.211.952T1.8,18q.064.842.11,2.005t.046,2.717V36.812c0,.293-.007.68-.018,1.161s-.028.973-.046,1.472-.046.968-.083,1.4a5.975,5.975,0,0,1-.128.923q.81.312,1.7.559c.595.163,1.188.314,1.779.448.416.1.849.178,1.291.238s.86.11,1.252.146.751.062,1.078.075.588.018.783.018a11.639,11.639,0,0,0,4.472-.8,9.478,9.478,0,0,0,3.225-2.133,8.8,8.8,0,0,0,1.955-3.074,10.23,10.23,0,0,0,.654-3.623,10.961,10.961,0,0,0-.717-4.063,8.928,8.928,0,0,0-1.991-3.074,8.814,8.814,0,0,0-3.014-1.95,10.283,10.283,0,0,0-3.79-.686,11.531,11.531,0,0,0-2.71.32,10.349,10.349,0,0,0-2.488.943Z" transform="translate(1.104 12.077)" fill="#f2efeb"/>
    <path id="Path_107" data-name="Path 107" d="M18.81,45.051a21.193,21.193,0,0,1-1.076,2.186,6.27,6.27,0,0,1-.86,1.218v.073h3.449v-.073a.737.737,0,0,1-.075-.211,1.718,1.718,0,0,1-.037-.392,4.593,4.593,0,0,1,.305-1.63q.3-.8.6-1.481l8.794-20.791a22.238,22.238,0,0,1,1.076-2.223,6.9,6.9,0,0,1,.84-1.236v-.073H28.508v.073a.749.749,0,0,1,.073.211,1.747,1.747,0,0,1,.036.394,4.586,4.586,0,0,1-.3,1.629q-.306.8-.6,1.483L23.068,35.04,17.98,24.059a10.228,10.228,0,0,1-.654-1.71,5.093,5.093,0,0,1-.176-1.254,3.284,3.284,0,0,1,.018-.33,1.155,1.155,0,0,1,.055-.275v-.073H12.4v.073c.062.075.183.242.369.5s.394.59.636.979.494.833.765,1.327.522,1.01.755,1.547L21.41,38.938Z" transform="translate(9.617 15.842)" fill="#f2efeb"/>
  </g>
</svg>
