<svg id="Group_149" data-name="Group 149" xmlns="http://www.w3.org/2000/svg" xmlns:xlink="http://www.w3.org/1999/xlink" width="134.526" height="102.178" viewBox="0 0 134.526 102.178">
  <defs>
    <clipPath id="clip-path">
      <rect id="Rectangle_35" data-name="Rectangle 35" width="134.526" height="102.178" fill="none"/>
    </clipPath>
  </defs>
  <g id="Group_59" data-name="Group 59" clip-path="url(#clip-path)">
    <path id="Path_90" data-name="Path 90" d="M12.873,82.369H134a.469.469,0,0,0,.473-.464V12.577a.468.468,0,0,0-.473-.463H12.873a.468.468,0,0,0-.473.463V81.9a.468.468,0,0,0,.473.464m.473-69.328H133.525v68.4H13.346Z" transform="translate(-6.173 -6.154)" fill="#f2efeb"/>
    <path id="Path_91" data-name="Path 91" d="M57.293,84.4H1.939a.984.984,0,0,1-.993-.973V1.9A.984.984,0,0,1,1.939.927H132.587a1,1,0,0,1,.705.289.958.958,0,0,1,.288.683V83.423a.984.984,0,0,1-.993.973H77.233a.468.468,0,0,1,.473.463v.463h54.88a1.922,1.922,0,0,0,1.939-1.9V1.9a1.918,1.918,0,0,0-1.77-1.891c-.056,0-.112-.008-.17-.008H1.939A1.922,1.922,0,0,0,0,1.9V83.423a1.922,1.922,0,0,0,1.939,1.9H56.82v-.463a.468.468,0,0,1,.473-.463" fill="#f2efeb"/>
    <path id="Path_92" data-name="Path 92" d="M246.009,159.552h-5.027a1.516,1.516,0,0,0-.74.192,1.471,1.471,0,0,0-.76,1.184c0,.033-.005.065-.005.1a1.491,1.491,0,0,0,1.505,1.475h5.027a1.475,1.475,0,1,0,0-2.949m0,2.022h-5.027a.548.548,0,1,1,0-1.1h5.027a.566.566,0,0,1,.388.154.542.542,0,0,1,.171.393.554.554,0,0,1-.559.548" transform="translate(-119.216 -81.059)" fill="#f2efeb"/>
    <path id="Path_93" data-name="Path 93" d="M118.245,197.378a.468.468,0,0,1-.473.463h12.576c1.329,0,2.953,1.066,2.953,2.309v1.142H64.86v-1.142a1.725,1.725,0,0,1,.368-1.017,3.439,3.439,0,0,1,2.584-1.291h12.58a.472.472,0,0,1-.454-.333.459.459,0,0,1,.2-.52l.117-.074H67.812c-1.8,0-3.9,1.413-3.9,3.236v1.605a.447.447,0,0,0,.048.2.472.472,0,0,0,.425.263h69.388a.468.468,0,0,0,.473-.463v-1.605c0-1.822-2.1-3.236-3.9-3.236h-12.44l.082.052a.463.463,0,0,1,.256.412" transform="translate(-31.817 -100.041)" fill="#f2efeb"/>
    <path id="Path_94" data-name="Path 94" d="M134.032,172.013a.468.468,0,0,0-.473-.463H113.618a.468.468,0,0,0-.473.463v6.722l.217-.137a.48.48,0,0,1,.256-.074h.473v-6.048h18.995v6.048h.473a.48.48,0,0,1,.256.074l.217.137v-6.722Z" transform="translate(-56.325 -87.154)" fill="#f2efeb"/>
    <path id="Path_95" data-name="Path 95" d="M124.916,185.727H104.976a.48.48,0,0,0-.256.074l-.217.137-.446.282-7.938,5.011L96,191.3a.459.459,0,0,0-.2.521.472.472,0,0,0,.454.333h37.381a.468.468,0,0,0,.473-.463.463.463,0,0,0-.256-.412l-.082-.052-8.384-5.293-.217-.137a.48.48,0,0,0-.256-.074m7.11,5.5H97.865l7.25-4.577h19.662Z" transform="translate(-47.683 -94.357)" fill="#f2efeb"/>
  </g>
</svg>
