<svg id="Group_150" data-name="Group 150" xmlns="http://www.w3.org/2000/svg" xmlns:xlink="http://www.w3.org/1999/xlink" width="42.644" height="42.643" viewBox="0 0 42.644 42.643">
  <defs>
    <clipPath id="clip-path">
      <rect id="Rectangle_25" data-name="Rectangle 25" width="42.643" height="42.643" fill="#f2efeb"/>
    </clipPath>
  </defs>
  <g id="Group_25" data-name="Group 25" transform="translate(0 0)" clip-path="url(#clip-path)">
    <path id="Path_77" data-name="Path 77" d="M18.8,15.509,20.845.122a.141.141,0,0,1,.278,0l2.529,15.314L35.975,5.994a.141.141,0,0,1,.2.194L27.135,18.8l15.387,2.04a.141.141,0,0,1,0,.278L27.212,23.652l9.437,12.322a.141.141,0,0,1-.193.2l-12.617-9.04L21.8,42.521a.141.141,0,0,1-.278,0L18.991,27.212,6.669,36.649a.141.141,0,0,1-.2-.193l9.04-12.617L.122,21.8a.141.141,0,0,1,0-.278l15.314-2.529L5.994,6.668a.141.141,0,0,1,.194-.2Z" transform="translate(0 0)" fill="#f2efeb"/>
  </g>
</svg>
