<?xml version="1.0" encoding="UTF-8"?>
<svg id="Layer_1" xmlns="http://www.w3.org/2000/svg" version="1.1" viewBox="0 0 500 500">
  <!-- Generator: Adobe Illustrator 29.3.0, SVG Export Plug-In . SVG Version: 2.1.0 Build 2)  -->
  <defs>
    <style>
      .st0 {
        fill: #396fa4;
      }
    </style>
  </defs>
  <g>
    <path class="st0" d="M461.6,432.7c-2.8-4.4-6.1-9.8-9.7-16.3-3.6-6.4-7.5-13.7-11.7-21.9-4.2-8.1-8.2-16.5-12-25.2L263.2.6h-24.3L64.6,384.1c-6.5,14.7-12.5,26.9-17.9,36.7-5.5,9.8-10,16.6-13.7,20.3v1.2h62v-1.2c-.4-.6-.8-1.7-1.2-3.4-.4-1.7-.6-3.9-.6-6.5,0-9.1,1.7-18,5.2-26.9,3.4-8.9,6.7-17,9.7-24.4l46.2-106.2,83.9-192.8,85.4,191.6,49.2,109.8c4.8,11.3,8.2,20.7,9.9,28.2,1.7,7.5,2.6,14.4,2.6,20.7s0,3.4-.3,5.4c-.2,2-.5,3.5-.9,4.5v1.2h83.3v-1.2c-1-1.2-3-4-5.8-8.4h-.1Z"/>
    <path class="st0" d="M467.9,442.8h-84.3v-1.9c.4-.9.7-2.4.9-4.3s.3-3.8.3-5.4c0-6.1-.9-13-2.6-20.6-1.6-7.3-5-16.8-9.8-28.1l-49.2-109.8-84.9-190.6L108.5,380.1c-3,7.2-6,14.9-9.7,24.4-3.4,8.7-5.1,17.7-5.1,26.7s.2,4.7.6,6.4c.2,1.1.7,2.7,1.1,3.3h0v2h-63v-2.1c3.8-3.8,8.3-10.6,13.7-20.3,5.6-10,11.6-22.3,17.9-36.7L238.4,0h25v.3c.1,0,165.2,368.7,165.2,368.7,3.7,8.4,7.8,16.9,12,25.2,4.1,8,8,15.4,11.7,21.9,3.5,6.3,6.8,11.7,9.7,16.2h0c2.7,4.3,4.7,7.2,5.7,8.4v.2c.1,0,.1,1.9.1,1.9h.2ZM384.6,441.8h82.3v-.5c-1.1-1.3-3-4.1-5.7-8.4-2.9-4.5-6.2-10-9.8-16.3-3.7-6.5-7.7-13.9-11.7-21.9-4.3-8.3-8.3-16.8-12-25.2L262.8,1h-23.7L65.1,384.2c-6.4,14.4-12.4,26.7-18,36.7-5.4,9.6-9.9,16.4-13.6,20.3v.5h61v-.6c-.4-.6-.7-1.7-1.2-3.5-.4-1.7-.6-3.9-.6-6.6,0-9.1,1.8-18.2,5.2-27,3.7-9.5,6.8-17.3,9.7-24.4L238.2,79.5l.5,1.1,85.4,191.6,49.2,109.8c4.9,11.4,8.2,20.9,9.9,28.3,1.7,7.6,2.6,14.6,2.6,20.8s-.1,3.5-.3,5.5c-.2,2-.5,3.5-.9,4.6v.6h0Z"/>
  </g>
  <path class="st0" d="M224.9,343.3l11.6-87.7c.2-1.3,2.1-1.4,2.3,0l14.4,87.3,70.2-53.8c1.1-.8,2.4.5,1.6,1.6l-51.5,71.9,87.7,11.6c1.3.2,1.4,2.1,0,2.3l-87.3,14.4,53.8,70.2c.8,1.1-.5,2.4-1.6,1.6l-71.9-51.5-11.6,87.7c-.2,1.3-2.1,1.4-2.3,0l-14.4-87.3-70.2,53.8c-1.1.8-2.4-.5-1.6-1.6l51.5-71.9-87.7-11.6c-1.3-.2-1.4-2.1,0-2.3l87.3-14.4-53.8-70.2c-.8-1.1.5-2.4,1.6-1.6l71.9,51.5h0Z"/>
</svg>