<?xml version="1.0" encoding="UTF-8"?>
<svg id="Group_150" xmlns="http://www.w3.org/2000/svg" xmlns:xlink="http://www.w3.org/1999/xlink" version="1.1" viewBox="0 0 42.6 42.6">
  <!-- Generator: Adobe Illustrator 29.1.0, SVG Export Plug-In . SVG Version: 2.1.0 Build 142)  -->
  <defs>
    <style>
      .st0 {
        fill: none;
      }

      .st1 {
        fill: #c19d9d;
      }

      .st2 {
        clip-path: url(#clippath);
      }
    </style>
    <clipPath id="clippath">
      <rect class="st0" width="42.6" height="42.6"/>
    </clipPath>
  </defs>
  <g class="st2">
    <g id="Group_25">
      <path id="Path_77" class="st1" d="M18.8,15.5L20.8.1c0,0,0-.1.2-.1,0,0,.1,0,.1.1l2.5,15.3,12.3-9.4c0,0,.2,0,.2,0,0,0,0,.1,0,.2l-9,12.6,15.4,2c0,0,.1,0,.1.2,0,0,0,.1-.1.1l-15.3,2.5,9.4,12.3c0,0,0,.2,0,.2,0,0-.1,0-.2,0l-12.6-9-2,15.4c0,0,0,.1-.2.1,0,0-.1,0-.1-.1l-2.5-15.3-12.3,9.4c0,0-.2,0-.2,0,0,0,0-.1,0-.2l9-12.6L.1,21.8c0,0-.1,0-.1-.2,0,0,0-.1.1-.1l15.3-2.5L6,6.7c0,0,0-.2,0-.2,0,0,.1,0,.2,0l12.6,9Z"/>
    </g>
  </g>
</svg>