<?xml version="1.0" encoding="UTF-8"?>
<svg id="Layer_1" data-name="Layer 1" xmlns="http://www.w3.org/2000/svg" xmlns:xlink="http://www.w3.org/1999/xlink" viewBox="0 0 402 344">
  <defs>
    <style>
      .cls-1 {
        fill: none;
      }

      .cls-2 {
        fill: #a7a7a7;
      }

      .cls-3 {
        fill: #3970a4;
      }

      .cls-4 {
        isolation: isolate;
      }

      .cls-5 {
        fill: #151e1d;
      }

      .cls-6 {
        clip-path: url(#clippath);
      }
    </style>
    <clipPath id="clippath">
      <rect class="cls-1" x="176" y="169" width="55" height="55"/>
    </clipPath>
  </defs>
  <g id="Group_19" data-name="Group 19">
    <g id="Ellipse_1" data-name="Ellipse 1">
      <circle class="cls-1" cx="120" cy="222" r="120"/>
      <path class="cls-3" d="M120,342C53.83,342,0,288.17,0,222s53.83-120,120-120,120,53.83,120,120-53.83,120-120,120ZM120,103C54.38,103,1,156.38,1,222s53.38,119,119,119,119-53.38,119-119-53.38-119-119-119Z"/>
    </g>
    <g id="Ellipse_2" data-name="Ellipse 2">
      <circle class="cls-1" cx="282" cy="224" r="120"/>
      <path class="cls-3" d="M282,344c-66.17,0-120-53.83-120-120s53.83-120,120-120,120,53.83,120,120-53.83,120-120,120ZM282,105c-65.62,0-119,53.38-119,119s53.38,119,119,119,119-53.38,119-119-53.38-119-119-119Z"/>
    </g>
    <g id="Ellipse_3" data-name="Ellipse 3">
      <ellipse class="cls-1" cx="208.5" cy="120" rx="119.5" ry="120"/>
      <path class="cls-3" d="M208.5,240c-65.89,0-119.5-53.83-119.5-120S142.61,0,208.5,0s119.5,53.83,119.5,120-53.61,120-119.5,120ZM208.5,1c-65.34,0-118.5,53.38-118.5,119s53.16,119,118.5,119,118.5-53.38,118.5-119S273.84,1,208.5,1Z"/>
    </g>
    <g id="Group_5" data-name="Group 5">
      <g class="cls-6">
        <g id="Group_1" data-name="Group 1">
          <g id="Path_1" data-name="Path 1">
            <path class="cls-3" d="M200.11,188.76l2.6-19.59c.02-.15.16-.26.31-.24.12.02.21.11.23.23l3.22,19.5,15.69-12.02c.12-.1.29-.09.39.03.09.1.09.25,0,.36l-11.52,16.07,19.59,2.6c.15.02.26.16.24.31-.02.12-.11.22-.23.24l-19.5,3.22,12.02,15.69c.1.12.09.29-.03.39-.1.09-.25.09-.36,0l-16.07-11.52-2.6,19.59c-.02.15-.16.26-.31.24-.12-.02-.22-.11-.24-.23l-3.22-19.5-15.69,12.02c-.12.1-.29.09-.39-.03-.09-.1-.09-.25,0-.36l11.52-16.07-19.59-2.6c-.15-.02-.26-.16-.24-.31.02-.12.11-.21.23-.23l19.5-3.22-12.02-15.69c-.1-.12-.09-.29.03-.39.1-.09.25-.09.36,0l16.07,11.52Z"/>
          </g>
        </g>
      </g>
    </g>
    <g id="Body" class="cls-4">
      <g class="cls-4">
        <path class="cls-5" d="M192.34,63.86c0-.44,0-.83-.02-1.16-.01-.33-.03-.62-.05-.86-.02-.24-.05-.44-.07-.61-.03-.16-.06-.3-.09-.41v-.03c.1,0,.21,0,.33,0,.1,0,.21,0,.33,0h.38c.19,0,.44-.02.76-.05s.73-.05,1.24-.05c.47,0,.9.06,1.3.18.4.12.74.3,1.03.53s.52.51.68.85.25.72.25,1.14c0,.36-.05.68-.15.96-.1.28-.24.53-.42.74s-.4.39-.65.53c-.25.14-.53.26-.83.34.44.07.85.18,1.21.34.36.16.68.36.94.6.26.24.47.52.61.84.14.32.21.68.21,1.07,0,1.1-.36,1.92-1.09,2.47-.72.55-1.81.82-3.25.82-.16,0-.34,0-.55-.02-.21-.01-.42-.03-.64-.04-.22-.02-.43-.03-.64-.04-.21-.01-.39-.02-.55-.02h-.52v-.03c.03-.11.06-.25.09-.41.03-.16.05-.36.07-.6.02-.24.04-.52.05-.86.01-.33.02-.72.02-1.16v-5.09ZM193.77,65.88c.15.02.28.02.39.03.11,0,.24,0,.37,0,.35,0,.68-.05.97-.15.29-.1.54-.25.75-.46.21-.2.37-.46.48-.76.11-.3.17-.66.17-1.07,0-.34-.04-.65-.12-.92-.08-.28-.21-.51-.37-.71s-.37-.34-.61-.45c-.24-.1-.51-.16-.82-.16-.2,0-.37,0-.52.02s-.27.03-.38.05c-.12.02-.22.05-.3.08v4.48ZM195.21,66.46c-.35,0-.65.01-.89.04-.24.03-.42.05-.55.08v2.37c0,.61.01,1.11.03,1.51.02.4.05.72.09.97.2.03.4.05.59.07.2.02.36.03.48.03.97,0,1.69-.22,2.14-.65.45-.43.68-1.1.68-2,0-.35-.05-.68-.16-.97-.11-.29-.27-.55-.48-.76s-.48-.38-.8-.5-.69-.18-1.12-.18Z"/>
        <path class="cls-5" d="M200.52,67.98c0-.59.11-1.13.33-1.64s.52-.94.9-1.31.83-.66,1.36-.87c.52-.21,1.08-.31,1.68-.31s1.14.1,1.66.29c.52.2.97.47,1.36.83.38.36.69.8.91,1.31.22.52.33,1.09.33,1.73,0,.54-.09,1.05-.28,1.55s-.46.93-.83,1.31c-.37.38-.81.68-1.34.91-.53.23-1.14.34-1.82.34-.58,0-1.13-.1-1.65-.29s-.97-.47-1.35-.83c-.39-.36-.69-.8-.91-1.31-.22-.51-.34-1.09-.34-1.73ZM204.95,71.57c.37,0,.71-.07,1.02-.22.31-.15.58-.36.8-.63.22-.28.4-.61.52-1.01s.19-.84.19-1.34c0-.56-.06-1.08-.18-1.57-.12-.48-.3-.9-.54-1.25-.24-.35-.54-.63-.89-.82s-.78-.3-1.26-.3c-.37,0-.71.07-1.02.21-.31.14-.57.35-.8.62s-.4.6-.53,1-.19.84-.19,1.34c0,.56.06,1.09.18,1.57.12.48.3.91.54,1.26.24.36.54.64.89.84.36.2.77.3,1.25.3Z"/>
        <path class="cls-5" d="M214.36,63.86c.21,0,.43.02.64.05.21.04.42.09.62.16s.4.15.58.25c.18.1.35.21.49.34v-1.28c0-.44,0-.83-.02-1.16-.01-.33-.03-.62-.05-.86-.02-.24-.04-.44-.07-.6-.03-.16-.05-.3-.09-.41v-.03h1.8v.03c-.03.11-.06.25-.09.41-.03.16-.05.36-.07.6-.02.24-.03.52-.05.86-.01.33-.02.72-.02,1.16v5.57c0,.44,0,.83.02,1.16.01.33.03.62.05.86.02.24.04.44.07.6.03.16.06.3.09.41v.03h-1.73v-.03s.03-.1.04-.18c0-.08.02-.18.04-.3-.27.17-.6.32-1,.45-.4.14-.87.2-1.4.2-.62,0-1.18-.1-1.69-.29-.51-.19-.94-.47-1.29-.83-.36-.36-.63-.8-.82-1.31-.19-.51-.29-1.09-.29-1.73,0-.59.1-1.13.31-1.64.21-.5.5-.94.88-1.31s.82-.66,1.34-.87,1.08-.31,1.7-.31ZM216.7,66.03c-.21-.55-.51-.95-.89-1.21-.39-.26-.82-.39-1.31-.39-.41,0-.78.07-1.12.21s-.64.35-.88.62c-.25.27-.44.6-.57,1-.14.39-.21.84-.21,1.34,0,.56.06,1.09.19,1.57s.31.91.55,1.26.54.64.9.84.77.3,1.24.3c.24,0,.47-.03.69-.09.21-.06.41-.13.59-.22.18-.09.33-.19.47-.29.13-.11.25-.21.34-.32,0-.22.02-.48.02-.77,0-.29,0-.6,0-.95v-2.91Z"/>
        <path class="cls-5" d="M222.97,71.91l-2.75-6.02c-.1-.23-.21-.45-.32-.66-.12-.21-.22-.4-.32-.57s-.19-.31-.27-.42-.13-.18-.16-.21v-.03h2.05v.03s-.02.07-.02.12c0,.05,0,.1,0,.14,0,.16.02.34.07.54.05.2.14.44.28.73l2.16,4.69,1.97-4.62c.08-.19.17-.4.25-.63s.13-.46.13-.7c0-.07,0-.12-.02-.17-.01-.04-.02-.07-.03-.09v-.03h1.41v.03c-.09.1-.21.27-.36.53-.14.25-.3.57-.46.95l-3.73,8.88c-.08.19-.17.4-.25.63s-.13.46-.13.7c0,.07,0,.12.02.17,0,.04.02.07.03.09v.03h-1.46v-.03c.1-.1.22-.27.36-.52.14-.25.29-.56.46-.93l1.1-2.61Z"/>
      </g>
    </g>
    <g id="Mind" class="cls-4">
      <g class="cls-4">
        <path class="cls-5" d="M278.56,264.97c.06-.08.12-.21.2-.37.07-.16.13-.37.17-.62.06-.36.12-.77.19-1.23s.14-.93.22-1.43c.08-.5.15-1.01.23-1.54.08-.52.15-1.04.22-1.55s.14-1,.2-1.47c.06-.47.12-.9.18-1.29.05-.39.09-.73.13-1.02.03-.29.06-.51.07-.65h.99l4.91,9.19,4.88-9.19h.74l1.28,9.28c.04.29.08.54.12.75.04.21.08.39.12.54.04.15.08.27.12.37s.08.18.11.24v.03h-1.97v-.03c.03-.06.05-.15.07-.28s.04-.29.04-.47c0-.07,0-.14,0-.21,0-.07-.01-.15-.02-.23l-.99-7.48-4.61,8.67-.54-.06-4.64-8.69c-.18,1.23-.34,2.38-.48,3.42-.06.45-.12.89-.17,1.34-.06.45-.11.86-.15,1.25-.04.39-.08.73-.11,1.02-.03.29-.04.51-.04.65,0,.18,0,.33.02.47,0,.14.02.25.03.34.02.11.03.21.05.29h-1.56v-.03Z"/>
        <path class="cls-5" d="M295.54,260.05c0-.44,0-.83-.02-1.16-.01-.33-.03-.62-.05-.86-.02-.24-.04-.44-.07-.6-.03-.16-.06-.3-.09-.41v-.03h1.8v.03c-.03.11-.06.25-.09.41-.03.16-.05.36-.07.6-.02.24-.04.52-.05.86-.01.33-.02.72-.02,1.16v1.89c0,.44,0,.83.02,1.16,0,.33.03.62.05.86.02.24.04.44.07.6.03.16.05.3.09.41v.03h-1.8v-.03c.03-.11.06-.25.09-.41.03-.16.05-.36.07-.6.02-.24.03-.52.05-.86.01-.33.02-.72.02-1.16v-1.89ZM295.38,254.63c0-.11.02-.22.07-.32.04-.1.1-.19.18-.27.07-.08.16-.14.26-.18s.21-.07.33-.07.23.02.33.07.19.1.27.18c.08.08.13.16.18.27.04.1.07.21.07.32,0,.24-.08.44-.24.6-.16.16-.36.24-.6.24-.12,0-.23-.02-.33-.07s-.19-.1-.26-.18c-.07-.08-.13-.16-.18-.27-.04-.1-.07-.21-.07-.33Z"/>
        <path class="cls-5" d="M304.73,259.73c0-.69-.14-1.19-.41-1.52-.28-.32-.65-.48-1.11-.48-.17,0-.35.04-.56.11-.21.07-.42.16-.64.28s-.44.25-.66.41-.42.32-.62.5l-.02,1.02v1.89c0,.44,0,.83.02,1.16,0,.33.03.62.05.86.02.24.04.44.07.6.03.16.05.3.09.41v.03h-1.8v-.03c.03-.11.06-.25.09-.41.03-.16.05-.36.07-.6.02-.24.03-.52.05-.86.01-.33.02-.72.02-1.16v-1.89c0-.44,0-.83-.02-1.16-.01-.33-.03-.62-.05-.86-.02-.24-.04-.44-.07-.6-.03-.16-.06-.3-.09-.41v-.03h1.8v.03c-.04.13-.07.3-.1.5s-.05.46-.07.79c.21-.18.44-.35.69-.53.25-.18.5-.33.77-.47s.54-.25.81-.34c.28-.09.55-.13.81-.13.41,0,.75.07,1.04.21.28.14.52.33.7.55s.31.49.39.79c.08.29.12.59.12.89v2.66c0,.44,0,.83.02,1.16,0,.33.03.62.05.86.02.24.04.44.07.6.03.16.05.3.09.41v.03h-1.8v-.03c.03-.11.06-.25.09-.41.03-.16.05-.36.07-.6.02-.24.03-.52.05-.86.01-.33.02-.72.02-1.16v-2.21Z"/>
        <path class="cls-5" d="M312,256.86c.21,0,.43.02.64.05.21.04.42.09.62.16s.4.15.58.25c.18.1.35.21.49.34v-1.28c0-.44,0-.83-.02-1.16-.01-.33-.03-.62-.05-.86-.02-.24-.04-.44-.07-.6-.03-.16-.05-.3-.09-.41v-.03h1.8v.03c-.03.11-.06.25-.09.41-.03.16-.05.36-.07.6-.02.24-.03.52-.05.86-.01.33-.02.72-.02,1.16v5.57c0,.44,0,.83.02,1.16.01.33.03.62.05.86.02.24.04.44.07.6.03.16.06.3.09.41v.03h-1.73v-.03s.03-.1.04-.18c0-.08.02-.18.04-.3-.27.17-.6.32-1,.45-.4.14-.87.2-1.4.2-.62,0-1.18-.1-1.69-.29-.51-.19-.94-.47-1.29-.83-.36-.36-.63-.8-.82-1.31-.19-.51-.29-1.09-.29-1.73,0-.59.1-1.13.31-1.64.21-.5.5-.94.88-1.31s.82-.66,1.34-.87,1.08-.31,1.7-.31ZM314.34,259.03c-.21-.55-.51-.95-.89-1.21-.39-.26-.82-.39-1.31-.39-.41,0-.78.07-1.12.21s-.64.35-.88.62c-.25.27-.44.6-.57,1-.14.39-.21.84-.21,1.34,0,.56.06,1.09.19,1.57s.31.91.55,1.26.54.64.9.84.77.3,1.24.3c.24,0,.47-.03.69-.09.21-.06.41-.13.59-.22.18-.09.33-.19.47-.29.13-.11.25-.21.34-.32,0-.22.02-.48.02-.77,0-.29,0-.6,0-.95v-2.91Z"/>
      </g>
    </g>
    <g id="Soul" class="cls-4">
      <g class="cls-4">
        <path class="cls-5" d="M83.79,255.58h-.17c-.04-.12-.11-.25-.2-.41-.09-.15-.21-.29-.36-.43s-.33-.24-.54-.33-.46-.13-.75-.13c-.26,0-.48.04-.68.12-.2.08-.36.19-.5.33s-.23.31-.3.5c-.07.19-.1.41-.1.64,0,.38.11.73.32,1.07s.48.68.79,1.01c.32.33.66.67,1.03,1,.37.33.71.68,1.03,1.04.32.36.58.74.79,1.13s.32.82.32,1.27c0,.34-.06.68-.18,1.02s-.3.65-.54.92c-.25.27-.56.49-.95.66-.39.17-.84.25-1.38.25-.3,0-.58-.03-.85-.08-.27-.05-.52-.12-.74-.2s-.43-.17-.61-.26-.33-.18-.44-.26l.18-1.73h.2c.06.25.15.48.28.7.13.22.29.42.48.59.19.17.41.3.65.41.24.1.51.15.8.15.27,0,.5-.04.71-.12s.39-.19.54-.34c.15-.14.27-.31.35-.51.08-.2.12-.41.12-.65,0-.33-.06-.63-.18-.91-.12-.28-.28-.54-.47-.79s-.42-.49-.66-.73c-.25-.23-.5-.47-.76-.71-.26-.24-.51-.48-.76-.73-.25-.25-.47-.52-.66-.8s-.35-.59-.47-.91c-.12-.33-.18-.68-.18-1.07,0-.41.08-.78.24-1.11.16-.33.37-.61.63-.85.26-.23.56-.41.89-.54.33-.12.68-.19,1.03-.19.26,0,.5.02.72.06s.42.09.59.15c.17.06.33.11.46.17.13.06.24.1.32.14l-.05,1.46Z"/>
        <path class="cls-5" d="M85.83,260.98c0-.59.11-1.13.33-1.64s.52-.94.9-1.31.83-.66,1.36-.87c.52-.21,1.08-.31,1.68-.31s1.14.1,1.66.29c.52.2.97.47,1.36.83.39.36.69.8.91,1.31.22.52.33,1.09.33,1.73,0,.54-.09,1.05-.28,1.55s-.46.93-.83,1.31c-.36.38-.81.68-1.34.91-.53.23-1.14.34-1.82.34-.58,0-1.13-.1-1.65-.29s-.97-.47-1.35-.83c-.39-.36-.69-.8-.91-1.31-.22-.51-.34-1.09-.34-1.73ZM90.26,264.57c.37,0,.71-.07,1.02-.22.31-.15.58-.36.8-.63.22-.28.4-.61.52-1.01s.19-.84.19-1.34c0-.56-.06-1.08-.18-1.57-.12-.48-.3-.9-.54-1.25-.24-.35-.54-.63-.89-.82s-.78-.3-1.26-.3c-.37,0-.71.07-1.02.21-.31.14-.57.35-.8.62s-.4.6-.53,1-.19.84-.19,1.34c0,.56.06,1.09.18,1.57.12.48.3.91.54,1.26.24.36.54.64.89.84.36.2.77.3,1.25.3Z"/>
        <path class="cls-5" d="M97.41,262.27c0,.69.14,1.19.41,1.52s.64.48,1.11.48c.17,0,.35-.04.56-.11.21-.07.42-.16.64-.28.22-.12.44-.25.66-.41.22-.16.43-.32.61-.5.01-.15.02-.31.02-.48v-2.43c0-.44,0-.83-.02-1.16-.01-.33-.03-.62-.05-.86-.02-.24-.04-.44-.07-.6-.03-.16-.06-.3-.09-.41v-.03h1.8v.03c-.03.11-.06.25-.09.41-.03.16-.05.36-.07.6-.02.24-.04.52-.05.86-.01.33-.02.72-.02,1.16v1.89c0,.44,0,.83.02,1.16.01.33.03.62.05.86.02.24.04.44.07.6.03.16.05.3.09.41v.03h-1.8v-.03c.03-.13.06-.3.1-.5.03-.2.06-.47.07-.8-.21.18-.44.36-.69.54-.25.18-.51.34-.77.48-.27.14-.54.25-.81.34s-.54.13-.81.13c-.41,0-.75-.07-1.04-.21-.28-.14-.52-.33-.7-.55s-.31-.49-.39-.78c-.08-.29-.12-.59-.12-.9v-2.66c0-.44,0-.83-.02-1.16-.01-.33-.03-.62-.05-.86-.02-.24-.04-.44-.07-.6-.03-.16-.05-.3-.09-.41v-.03h1.8v.03c-.03.11-.06.25-.09.41-.03.16-.05.36-.07.6-.02.24-.04.52-.05.86-.01.33-.02.72-.02,1.16v2.21Z"/>
        <path class="cls-5" d="M105.23,256.38c0-.44,0-.83-.02-1.16-.01-.33-.03-.62-.05-.86-.02-.24-.04-.44-.07-.6-.03-.16-.06-.3-.09-.41v-.03h1.8v.03c-.03.11-.06.25-.09.41-.03.16-.05.36-.07.6-.02.24-.04.52-.05.86-.01.33-.02.72-.02,1.16v5.57c0,.44,0,.83.02,1.16.01.33.03.62.05.86.02.24.04.44.07.6.03.16.05.3.09.41v.03h-1.8v-.03c.03-.11.06-.25.09-.41.03-.16.05-.36.07-.6.02-.24.03-.52.05-.86.01-.33.02-.72.02-1.16v-5.57Z"/>
      </g>
    </g>
    <g id="_01" data-name=" 01" class="cls-4">
      <g class="cls-4">
        <path class="cls-2" d="M203.44,44.17c0-.37.05-.72.14-1.06.09-.34.23-.66.4-.95.17-.3.38-.57.63-.81.24-.24.51-.45.81-.63.29-.17.61-.31.95-.4.34-.09.69-.14,1.06-.14s.72.05,1.06.14c.34.09.66.23.96.4.3.17.57.38.81.63.24.24.45.51.63.81.17.29.31.61.4.95.09.34.14.69.14,1.06s-.05.72-.14,1.06c-.1.34-.23.66-.4.95s-.38.57-.63.81-.51.45-.81.62c-.3.17-.62.31-.96.4-.34.09-.69.14-1.06.14s-.72-.05-1.06-.14c-.34-.09-.66-.23-.95-.4-.3-.17-.57-.38-.81-.62s-.45-.51-.63-.81-.31-.62-.4-.95c-.1-.34-.14-.69-.14-1.06ZM204.28,44.19c0,.29.04.58.11.85.08.27.18.53.31.76.13.24.3.46.49.65.19.2.4.37.64.5.23.14.49.25.75.33s.55.12.84.12.58-.04.85-.12c.27-.08.52-.18.76-.33.23-.14.45-.31.64-.5.19-.2.35-.42.49-.65.14-.24.24-.49.32-.76.08-.27.11-.56.11-.85,0-.44-.08-.85-.25-1.24-.16-.39-.39-.73-.67-1.02-.28-.29-.62-.52-1-.69-.38-.17-.79-.25-1.24-.25s-.85.08-1.24.25c-.38.17-.72.4-1,.69-.29.29-.51.63-.67,1.02s-.24.8-.24,1.24Z"/>
        <path class="cls-2" d="M212.87,47.98c.02-.08.04-.17.06-.28.02-.11.04-.25.05-.41.01-.16.02-.36.03-.59,0-.23.01-.49.01-.8v-3.5c0-.3-.02-.55-.06-.73-.04-.18-.09-.32-.15-.41-.06-.1-.12-.17-.18-.21s-.12-.08-.16-.12v-.02l1.65-.62v.02c-.02.08-.04.17-.06.28s-.04.25-.05.42c-.01.17-.03.36-.03.59,0,.23-.01.49-.01.8v3.5c0,.3,0,.57.01.8,0,.23.02.42.03.59.01.17.03.3.05.41s.04.2.06.28v.02h-1.25v-.02Z"/>
      </g>
    </g>
    <g id="_02" data-name=" 02" class="cls-4">
      <g class="cls-4">
        <path class="cls-2" d="M85.44,237.17c0-.37.05-.72.14-1.06.09-.34.23-.66.4-.95.17-.3.38-.57.63-.81s.51-.45.81-.63c.29-.17.61-.31.95-.4s.69-.14,1.06-.14.72.05,1.06.14.66.23.96.4.57.38.81.63.45.51.63.81c.17.29.31.61.4.95.09.34.14.69.14,1.06s-.05.72-.14,1.06c-.1.34-.23.66-.4.95-.17.3-.38.57-.63.81-.24.24-.51.45-.81.62s-.62.31-.96.4-.69.14-1.06.14-.72-.05-1.06-.14-.66-.23-.95-.4c-.3-.17-.56-.38-.81-.62-.24-.24-.45-.51-.63-.81-.17-.3-.31-.62-.4-.95-.1-.34-.14-.69-.14-1.06ZM86.28,237.19c0,.29.04.58.11.85.08.27.18.53.31.76.13.24.3.46.49.65.19.2.4.37.64.5.23.14.49.25.75.33s.55.12.84.12.58-.04.85-.12c.27-.08.52-.18.76-.33.23-.14.45-.31.64-.5.19-.2.35-.42.49-.65s.24-.49.32-.76c.08-.27.11-.56.11-.85,0-.44-.08-.85-.25-1.24s-.39-.73-.67-1.02c-.28-.29-.62-.52-1-.69s-.79-.25-1.24-.25-.85.08-1.24.25-.72.4-1,.69c-.29.29-.51.63-.67,1.02-.16.39-.24.8-.24,1.24Z"/>
        <path class="cls-2" d="M94.96,240.62c.11-.12.25-.25.4-.41s.31-.34.48-.53.34-.41.52-.64c.17-.23.34-.47.5-.73.16-.26.3-.53.42-.81.12-.28.22-.58.29-.88.07-.3.11-.62.11-.94,0-.34-.04-.63-.12-.88-.08-.25-.19-.46-.33-.62s-.3-.28-.49-.36c-.19-.08-.39-.12-.61-.12-.27,0-.52.05-.74.14-.22.09-.41.2-.58.32-.16.12-.29.24-.4.37-.1.12-.17.21-.21.28l-.08-.03.37-1.09c.19-.09.37-.16.53-.22.17-.06.33-.11.5-.15.17-.04.35-.07.53-.09.18-.02.38-.03.6-.03.15,0,.3.02.47.05.16.03.33.08.49.16s.31.16.46.28c.15.11.27.25.39.41.11.16.2.35.27.57.07.21.1.46.1.74,0,.29-.04.59-.13.88-.09.3-.21.59-.35.87-.15.29-.31.56-.5.84-.19.27-.38.53-.59.78s-.4.48-.6.7-.37.42-.53.59h2.07c.13,0,.26,0,.39,0,.13,0,.24-.01.35-.03s.2-.03.28-.05c.08-.02.14-.05.19-.08h.02v1.14h-4.72v-.11c.05-.07.14-.16.25-.28Z"/>
      </g>
    </g>
    <g id="_03" data-name=" 03" class="cls-4">
      <g class="cls-4">
        <path class="cls-2" d="M290.44,237.17c0-.37.05-.72.14-1.06.09-.34.23-.66.4-.95.17-.3.38-.57.63-.81.24-.24.51-.45.81-.63.29-.17.61-.31.95-.4.34-.09.69-.14,1.06-.14s.72.05,1.06.14c.34.09.66.23.96.4.3.17.57.38.81.63.24.24.45.51.63.81.17.29.31.61.4.95.09.34.14.69.14,1.06s-.05.72-.14,1.06c-.1.34-.23.66-.4.95s-.38.57-.63.81-.51.45-.81.62c-.3.17-.62.31-.96.4-.34.09-.69.14-1.06.14s-.72-.05-1.06-.14c-.34-.09-.66-.23-.95-.4-.3-.17-.57-.38-.81-.62s-.45-.51-.63-.81-.31-.62-.4-.95c-.1-.34-.14-.69-.14-1.06ZM291.28,237.19c0,.29.04.58.11.85.08.27.18.53.31.76.13.24.3.46.49.65.19.2.4.37.64.5.23.14.49.25.75.33s.55.12.84.12.58-.04.85-.12c.27-.08.52-.18.76-.33.23-.14.45-.31.64-.5.19-.2.35-.42.49-.65.14-.24.24-.49.32-.76.08-.27.11-.56.11-.85,0-.44-.08-.85-.25-1.24-.16-.39-.39-.73-.67-1.02-.28-.29-.62-.52-1-.69-.38-.17-.79-.25-1.24-.25s-.85.08-1.24.25c-.38.17-.72.4-1,.69-.29.29-.51.63-.67,1.02s-.24.8-.24,1.24Z"/>
        <path class="cls-2" d="M301.01,236.36c.21-.07.4-.18.58-.31.18-.13.32-.3.44-.5.11-.2.17-.44.17-.73,0-.16-.02-.31-.07-.45-.05-.14-.12-.27-.22-.37-.1-.11-.22-.19-.38-.26-.15-.06-.33-.09-.54-.09-.24,0-.46.03-.66.1-.2.07-.37.15-.52.26-.15.1-.29.22-.4.35-.11.13-.21.25-.28.37l-.08-.04.35-1.11c.14-.06.28-.11.42-.16.14-.05.29-.1.45-.13.16-.04.33-.07.51-.09s.38-.03.59-.03c.11,0,.23,0,.37.03.14.02.28.05.42.1.14.05.28.11.41.19.13.08.25.17.36.29s.19.25.25.41c.06.16.09.33.09.54,0,.25-.05.47-.15.66-.1.19-.22.35-.37.49-.15.14-.3.25-.47.34-.17.09-.31.16-.44.21.21.02.43.06.66.13.22.07.43.18.61.32.18.15.33.33.45.57.12.23.17.52.17.85,0,.38-.07.75-.21,1.09-.14.34-.33.66-.57.96-.24.3-.52.57-.83.82-.31.25-.65.47-1,.67-.35.2-.7.37-1.06.51-.36.14-.7.25-1.03.33l-.1-.27c.52-.13,1-.31,1.44-.55.44-.24.83-.52,1.16-.86.33-.34.59-.73.77-1.16.19-.44.28-.92.28-1.45,0-.3-.04-.55-.13-.75s-.2-.36-.34-.48c-.14-.12-.29-.21-.46-.26-.17-.05-.34-.08-.51-.08-.1,0-.2,0-.29.02-.09.01-.17.02-.24.04-.08.01-.15.03-.22.05v-.41c.19-.03.39-.07.6-.15Z"/>
      </g>
    </g>
  </g>
</svg>